<svg xmlns="http://www.w3.org/2000/svg" width="1000" height="1000" fill="none" viewBox="0 0 1000 1000"><defs><clipPath id="a"><path d="M0 0h1000v1000H0z"/></clipPath></defs><g clip-path="url(#a)"><path d="M0 0h1000v1000H0z"/><g fill="#009ab4" fill-rule="evenodd"><path d="M1000 426.536V284.338c-.205-18.443-15.322-33.231-33.766-33.028q-.401.005-.803.02H633.398L519.336 356.412v110.162l149.609-136.728h242.768v67.974L399.22 874.02l58.594 58.597z"/><path d="m393.552 843.731 88.087-83.599V609.145c.256-18.443-14.492-33.601-32.936-33.856q-1.306-.019-2.61.064H0v78.131h393.552zM457.522 454c2.049-19.419-12.028-36.819-31.442-38.871a35 35 0 0 0-3.518-.196H19.634v78.131h402.928c20.153-.812 35.835-17.813 35.022-37.968a40 40 0 0 0-.062-1.096m23.921-166.491c1.941-19.538-12.321-36.951-31.856-38.891a36 36 0 0 0-3.298-.174H87.109v-87.895s-.585-33.596-44.14-33.596S0 160.351 0 160.351v166.614H446.29c20.368-.937 36.117-18.205 35.185-38.57a28 28 0 0 0-.026-.494z"/></g></g></svg>