<?xml version="1.0" encoding="utf-8"?>
<svg width="600" height="600" viewBox="0 0 600 600" fill="none" stroke="none" version="1.1" xmlns:xlink="http://www.w3.org/1999/xlink" xmlns="http://www.w3.org/2000/svg">
  <g id="哔哩哔哩">
    <path id="椭圆" d="M0 300C0 134.315 134.315 0 300 0C465.685 0 600 134.315 600 300C600 465.685 465.685 600 300 600C134.315 600 0 465.685 0 300Z" style="fill:#FB7299;fill-rule:evenodd;mix-blend-mode:normal;" />
    <g id="编组" transform="translate(90 206)">
      <path id="形状" d="M116.238 136.671C110.026 131.962 103.012 128.655 95.7983 125.75C81.0698 119.938 65.6399 117.834 49.9095 118.235C46.2023 118.235 42.4952 118.536 38.6878 118.736C38.6878 118.435 38.3872 118.035 38.3872 117.534C37.3853 106.312 36.183 95.0902 35.3814 84.0689C34.6801 74.8511 34.3795 65.6333 34.1791 56.4155C33.8785 38.6812 33.8785 21.0471 33.8785 3.3128C33.8785 -0.895337 33.5779 -0.394368 30.3717 1.00834C20.4525 5.01609 10.6336 8.92365 0.714386 12.731C0.413788 12.9314 -0.0871582 13.9333 0.013031 14.4343C3.01884 25.656 5.2231 37.1783 6.72601 48.6004C8.22893 58.5195 9.53145 68.1381 10.9341 77.8569C12.1365 86.3734 12.938 94.8899 13.94 103.507C14.9419 112.223 16.1442 120.94 17.1462 129.757C18.1481 138.174 19.15 146.289 20.152 154.705C20.8533 160.717 21.4545 166.629 21.9554 172.64C22.256 177.349 22.6568 182.058 22.757 186.567C22.757 187.569 23.0576 188.07 24.0595 188.07C26.2638 188.07 28.2676 188.371 30.3717 188.07C40.5915 187.068 50.8112 186.367 60.8306 184.864C68.5455 183.661 76.06 181.858 83.4744 179.353C93.9947 175.846 103.012 169.835 111.729 162.921C115.436 160.116 118.442 156.709 119.745 152.401C122.65 145.387 121.448 140.578 116.238 136.671C116.238 136.671 116.238 136.671 116.238 136.671C116.238 136.671 116.238 136.671 116.238 136.671ZM58.5262 170.035C57.0233 158.813 55.5204 147.892 54.0174 137.071C59.8287 138.374 84.276 148.093 85.4783 149.596C76.5611 156.309 67.744 163.122 58.5262 170.035C58.5262 170.035 58.5262 170.035 58.5262 170.035C58.5262 170.035 58.5262 170.035 58.5262 170.035ZM175.152 142.081C174.651 136.27 174.15 130.158 173.448 124.347C172.747 116.331 171.945 108.316 171.244 100.2C170.543 92.7858 170.242 85.4716 169.741 78.0573C169.04 67.8375 168.238 57.6178 167.537 47.398C167.537 47.398 166.034 24.7542 166.034 24.7542C165.834 21.9488 164.732 21.2475 161.826 21.4478C158.319 21.7484 154.913 21.9488 151.406 22.1492C148.4 22.4498 145.394 22.8506 142.489 23.1511C151.506 71.0437 155.514 119.037 160.223 166.629C165.733 167.13 170.743 167.43 175.953 167.931C176.955 168.131 177.456 167.931 177.456 166.929C177.456 166.929 176.955 161.418 176.955 161.418C176.554 154.806 175.853 148.393 175.152 142.081C175.152 142.081 175.152 142.081 175.152 142.081C175.152 142.081 175.152 142.081 175.152 142.081ZM147.699 148.093C146.997 142.081 146.396 136.17 145.695 130.158C144.993 123.345 144.392 116.431 143.49 109.618C142.989 105.41 142.288 101.402 141.687 97.3947C141.487 95.8918 140.485 95.1904 138.882 95.3908C136.076 95.6914 133.07 95.6914 130.165 96.0922C126.157 96.5931 122.149 97.2945 117.941 97.7955C122.951 123.946 127.96 149.495 133.171 175.446C139.182 174.644 144.893 173.943 150.704 173.241C150.504 171.237 150.203 169.234 150.003 167.43C149.202 160.817 148.4 154.405 147.699 148.093C147.699 148.093 147.699 148.093 147.699 148.093C147.699 148.093 147.699 148.093 147.699 148.093ZM207.614 174.844C207.414 164.925 207.113 155.307 206.913 145.387C206.713 133.164 206.913 120.74 206.913 108.516C206.913 105.811 206.713 103.306 206.612 100.601C206.612 99.3985 205.911 98.3966 204.609 98.3966C199.398 98.1962 194.088 98.096 188.878 98.096C186.874 98.096 185.071 98.3966 183.067 98.7974C183.267 99.4987 183.267 99.9997 183.267 100.501C183.969 108.917 184.77 117.233 185.472 125.449C186.173 133.464 186.974 141.68 187.676 149.696C188.477 158.413 189.179 167.129 189.98 175.846C189.98 176.347 190.782 177.149 191.283 177.149C196.593 177.349 202.204 177.149 207.815 177.149C207.614 176.047 207.614 175.345 207.614 174.844C207.614 174.844 207.614 174.844 207.614 174.844C207.614 174.844 207.614 174.844 207.614 174.844ZM139.984 85.7722C138.982 76.2538 138.18 67.2364 137.278 58.0185C137.078 56.8162 136.577 56.2151 135.575 56.2151C132.369 56.2151 129.063 56.2151 125.656 56.4154C126.958 66.6352 128.161 76.4542 129.463 86.5738C133.171 86.2732 136.477 86.173 139.984 85.7722C139.984 85.7722 139.984 85.7722 139.984 85.7722C139.984 85.7722 139.984 85.7722 139.984 85.7722ZM206.112 87.2751C206.112 87.2751 206.112 61.8259 206.112 61.8259C206.112 60.0224 205.41 59.5215 203.907 59.5215C203.907 59.5215 195.19 59.5215 195.19 59.5215C195.19 59.5215 195.19 88.778 195.19 88.778C198.998 88.9784 202.605 89.0786 206.112 89.279C206.112 89.279 206.112 87.2751 206.112 87.2751L206.112 87.2751L206.112 87.2751ZM125.255 86.9745C125.255 86.9745 125.255 84.9707 125.255 84.9707C124.754 79.7606 124.053 74.7509 123.552 69.5408C123.251 66.2344 122.851 63.0282 122.55 59.6217C122.35 58.8201 122.75 57.6178 121.348 57.8182C118.141 58.1187 115.035 58.8201 111.829 59.1207C113.633 69.0399 115.336 78.6585 117.139 88.3772C117.139 88.3772 125.255 86.9745 125.255 86.9745L125.255 86.9745L125.255 86.9745ZM191.583 88.6778C191.583 88.6778 191.583 73.4484 191.583 73.4484C191.583 69.4406 191.383 65.2325 191.583 61.2247C191.583 59.7218 191.082 59.4213 189.78 59.4213C189.78 59.4213 180.863 59.4213 180.863 59.4213C181.664 69.8414 182.366 79.6604 183.167 89.3792C185.872 89.1788 188.578 88.9784 191.583 88.6778C191.583 88.6778 191.583 88.6778 191.583 88.6778L191.583 88.6778Z" style="fill:#FFFFFF;mix-blend-mode:normal;" transform="translate(212.185 0)" />
      <path id="形状" d="M116.171 136.671C109.959 131.962 102.945 128.655 95.731 125.75C81.0025 119.938 65.5727 117.834 49.8423 118.235C46.1351 118.235 42.428 118.536 38.6206 118.736C38.6206 118.435 38.32 118.035 38.32 117.534C37.3181 106.312 36.1158 95.0902 35.3142 84.0689C34.6129 74.8511 34.3123 65.6333 34.1119 56.4155C33.8113 38.6812 33.8113 21.0471 33.8113 3.3128C33.8113 -0.895337 33.5107 -0.394368 30.3045 1.00834C20.3853 5.01609 10.5664 8.92365 0.647182 12.731C0.346598 13.0316 -0.154371 14.0335 0.0460165 14.5345C3.05183 25.7562 5.25609 37.2785 6.759 48.7005C8.2619 58.6197 9.56442 68.2383 10.9671 77.9571C12.1695 86.4736 12.971 94.99 13.9729 103.607C14.9749 112.324 16.1772 121.04 17.1791 129.857C18.1811 138.274 19.183 146.389 20.185 154.806C20.8863 160.817 21.4875 166.729 21.9884 172.74C22.289 177.449 22.6898 182.159 22.79 186.667C22.79 187.669 23.0906 188.17 24.0925 188.17C26.2968 188.17 28.3006 188.471 30.4047 188.17C40.6245 187.168 50.8442 186.467 60.8636 184.964C68.5785 183.762 76.0931 181.958 83.5074 179.453C94.0277 175.947 103.045 169.935 111.762 163.022C115.469 160.216 118.475 156.81 119.778 152.501C122.583 145.387 121.381 140.578 116.171 136.671C116.171 136.671 116.171 136.671 116.171 136.671C116.171 136.671 116.171 136.671 116.171 136.671ZM58.4589 170.035C56.956 158.813 55.4531 147.892 53.9502 137.071C59.7615 138.374 84.2087 148.093 85.411 149.596C76.4938 156.309 67.6768 163.122 58.4589 170.035C58.4589 170.035 58.4589 170.035 58.4589 170.035C58.4589 170.035 58.4589 170.035 58.4589 170.035ZM175.084 142.081C174.583 136.27 174.083 130.158 173.381 124.347C172.68 116.331 171.878 108.316 171.177 100.2C170.476 92.7858 170.175 85.4716 169.674 78.0573C168.973 67.8375 168.171 57.6178 167.47 47.398C167.47 47.398 165.967 24.7542 165.967 24.7542C165.766 21.9488 164.664 21.2475 161.759 21.4478C158.252 21.7484 154.845 21.9488 151.339 22.1492C148.333 22.4498 145.327 22.8506 142.421 23.1511C151.439 71.0437 155.446 119.037 160.156 166.629C165.666 167.13 170.676 167.43 175.886 167.931C176.888 168.131 177.389 167.931 177.389 166.929C177.389 166.929 176.888 161.418 176.888 161.418C176.487 154.806 175.786 148.393 175.084 142.081C175.084 142.081 175.084 142.081 175.084 142.081C175.084 142.081 175.084 142.081 175.084 142.081ZM147.631 148.093C146.93 142.081 146.329 136.17 145.627 130.158C144.926 123.345 144.325 116.431 143.423 109.618C142.922 105.41 142.221 101.402 141.62 97.3947C141.419 95.8918 140.417 95.1904 138.814 95.3908C136.009 95.6914 133.003 95.6914 130.097 96.0922C126.09 96.5931 122.082 97.2945 117.874 97.7955C122.884 123.946 127.893 149.495 133.103 175.446C139.115 174.644 144.826 173.943 150.637 173.241C150.437 171.237 150.136 169.234 149.936 167.43C149.134 160.817 148.333 154.405 147.631 148.093C147.631 148.093 147.631 148.093 147.631 148.093C147.631 148.093 147.631 148.093 147.631 148.093ZM207.547 174.844C207.347 164.925 207.046 155.307 206.846 145.387C206.645 133.164 206.846 120.74 206.846 108.516C206.846 105.811 206.645 103.306 206.545 100.601C206.545 99.3985 205.844 98.3966 204.541 98.3966C199.331 98.1962 194.021 98.096 188.811 98.096C186.807 98.096 185.004 98.3966 183 98.7974C183.2 99.4987 183.2 99.9997 183.2 100.501C183.901 108.917 184.703 117.233 185.404 125.449C186.106 133.464 186.907 141.68 187.609 149.696C188.41 158.413 189.112 167.129 189.913 175.846C189.913 176.347 190.715 177.149 191.216 177.149C196.526 177.349 202.137 177.149 207.748 177.149C207.547 176.047 207.547 175.345 207.547 174.844C207.547 174.844 207.547 174.844 207.547 174.844C207.547 174.844 207.547 174.844 207.547 174.844ZM139.916 85.7722C138.915 76.2538 138.113 67.2364 137.211 58.0185C137.011 56.8162 136.51 56.2151 135.508 56.2151C132.302 56.2151 128.995 56.2151 125.589 56.4154C126.891 66.6352 128.094 76.4542 129.396 86.5738C133.103 86.2732 136.41 86.173 139.916 85.7722C139.916 85.7722 139.916 85.7722 139.916 85.7722C139.916 85.7722 139.916 85.7722 139.916 85.7722ZM206.044 87.2751C206.044 87.2751 206.044 61.8259 206.044 61.8259C206.044 60.0224 205.343 59.5215 203.84 59.5215C203.84 59.5215 195.123 59.5215 195.123 59.5215C195.123 59.5215 195.123 88.778 195.123 88.778C198.931 88.9784 202.537 89.0786 206.044 89.279C206.044 89.279 206.044 87.2751 206.044 87.2751L206.044 87.2751L206.044 87.2751ZM125.188 86.9745C125.188 86.9745 125.188 84.9707 125.188 84.9707C124.687 79.7606 123.986 74.7509 123.485 69.5408C123.184 66.2344 122.783 63.0282 122.483 59.6217C122.282 58.8201 122.683 57.6178 121.28 57.8182C118.074 58.1187 114.968 58.8201 111.762 59.1207C113.565 69.0399 115.269 78.6585 117.072 88.3772C117.072 88.3772 125.188 86.9745 125.188 86.9745L125.188 86.9745L125.188 86.9745ZM191.516 88.6778C191.516 88.6778 191.516 73.4484 191.516 73.4484C191.516 69.4406 191.316 65.2325 191.516 61.2247C191.516 59.7218 191.015 59.4213 189.713 59.4213C189.713 59.4213 180.796 59.4213 180.796 59.4213C181.597 69.8414 182.298 79.6604 183.1 89.3792C185.805 89.1788 188.51 88.9784 191.516 88.6778C191.516 88.6778 191.516 88.6778 191.516 88.6778L191.516 88.6778Z" style="fill:#FFFFFF;mix-blend-mode:normal;" />
    </g>
  </g>
</svg>