<svg xmlns="http://www.w3.org/2000/svg" width="1000" height="1000" fill="none" viewBox="0 0 1000 1000"><g fill-rule="evenodd"><path fill="#fff" d="M0 500C0 223.858 223.858 0 500 0s500 223.858 500 500-223.858 500-500 500S0 776.142 0 500"/><path fill="#000" d="M809.167 594.208a27 27 0 0 1-.25 3.459l-.209 1.166-.458 2.209-.417 1.291q-.3 1-.708 1.959l-.583 1.25a36 36 0 0 1-.875 1.791l-.792 1.25a23.8 23.8 0 0 1-3.333 4.167l-1.084 1.042a24 24 0 0 1-1.5 1.25l-1.208.916-.417.334L514.75 804.708a26.55 26.55 0 0 1-29.5 0L202.667 616.25l-.417-.333a25 25 0 0 1-2.708-2.167l-1.084-1.042-1.333-1.416-.875-1.167a24.5 24.5 0 0 1-2.792-4.583l-.583-1.292a26 26 0 0 1-.708-1.958l-.417-1.25a21 21 0 0 1-.417-2.25l-.25-1.167a26 26 0 0 1-.25-3.458V405.792q0-1.743.25-3.463l.21-1.125.458-2.25.417-1.25a23.9 23.9 0 0 1 5-9.041l1.29-1.417 1.085-1.042a26 26 0 0 1 2.708-2.166l.417-.334 282.582-188.37a26.58 26.58 0 0 1 29.5 0l282.583 188.374.417.334 1.25.916 1.458 1.25q.572.49 1.084 1.042a22.6 22.6 0 0 1 3.333 4.167l.792 1.25q.468.877.875 1.791l.583 1.25c.292.667.5 1.334.708 1.959l.417 1.291q.27 1.114.417 2.25l.25 1.125c.163 1.146.247 2.302.25 3.459z"/><path fill="#fff" d="M756 544.458v-88.916L689.583 500zM500 437.167 406.042 500 500 562.917 593.958 500zM526.583 609v123.958l208.167-138.75-93-62.208zM265.25 594.167l208.167 138.75V609L358.25 531.958zm469.5-188.334-208.167-138.75V391l115.167 77.083zM473.417 391V267.083L265.25 405.833l93 62.209zM244 455.542v88.916L310.417 500z"/></g></svg>