<?xml version="1.0" encoding="utf-8"?>
<svg width="1000" height="1000" viewBox="0 0 1000 1000" fill="none" xmlns="http://www.w3.org/2000/svg">
  <g id="DeepSeek">
    <rect id="矩形" width="1000" height="1000" />
    <path id="path" d="M791.646 50.4549C783.212 46.1672 779.478 54.1893 774.501 58.3387C772.842 59.5835 771.459 61.3816 769.938 62.903C757.632 76.4576 743.114 85.3097 724.172 84.2032C696.657 82.6817 673.013 91.5337 652.135 112.972C647.71 86.4161 632.916 70.6485 610.517 60.4134C598.764 55.1575 587.011 49.9016 578.715 38.4217C573.046 30.1229 571.387 20.9943 568.622 12.0039C566.686 6.60974 564.889 1.07724 558.805 0.109039C552.168 -0.859146 549.541 4.81168 546.914 9.51431C536.544 29.0164 532.396 50.4549 532.811 72.0316C533.779 120.856 553.966 159.722 594.063 187.384C598.626 190.427 599.87 193.608 598.349 198.311C595.722 207.855 592.404 216.983 589.5 226.527C587.703 232.613 584.937 233.996 578.577 231.368C556.593 221.963 537.512 208.131 520.643 191.257C492.16 163.18 466.305 132.059 434.088 107.716C426.622 102.046 419.017 96.7896 411.136 91.8104C378.367 59.3069 415.561 32.6125 424.133 29.4313C433.121 26.1118 427.175 14.7702 398.139 14.7702C369.103 14.9085 342.556 24.867 308.542 38.145C303.703 40.0814 298.449 41.6028 293.057 42.7094C262.361 36.7619 230.422 35.5171 196.961 39.2515C134.188 46.4438 83.9975 76.7343 47.0803 128.325C2.69675 190.427 -7.67324 261.105 5.04729 334.687C18.4591 412.281 57.312 476.458 117.043 526.665C178.987 578.809 250.332 604.259 331.633 599.418C381.132 596.513 436.162 589.736 498.106 536.209C513.868 544.093 530.184 547.274 557.422 549.764C578.439 551.7 598.626 548.657 614.388 545.338C638.861 540.082 637.202 516.984 628.215 512.696C556.454 478.671 572.217 492.502 557.837 481.299C594.339 437.177 649.37 391.534 670.939 243.401C672.598 231.644 671.216 224.176 670.939 214.632C670.801 208.823 672.045 206.61 678.544 205.918C696.657 203.844 714.078 198.864 730.117 189.874C776.575 163.871 795.379 121.409 799.804 70.3719C800.495 62.4881 799.665 54.4659 791.646 50.4549C791.646 50.4549 791.646 50.4549 791.646 50.4549ZM385.972 509.515C316.424 453.775 282.687 435.379 268.722 436.209C255.725 437.039 257.937 452.115 260.84 462.073C263.882 471.894 267.754 478.671 273.284 487.246C277.018 492.917 279.645 501.354 269.413 507.716C247.014 521.824 208.023 502.876 206.225 502.046C160.874 474.798 122.989 438.837 96.165 389.598C70.4474 342.295 55.3763 291.534 52.8875 237.454C52.3345 224.314 56.0677 219.75 68.7882 217.26C85.6567 214.217 102.94 213.526 119.809 216.015C190.878 226.527 251.3 258.892 302.044 310.206C331.08 339.39 352.926 374.383 375.463 408.408C399.522 444.646 425.239 479.086 458.147 507.44C469.761 517.398 479.025 524.867 487.874 530.4C461.189 533.443 416.529 534.134 385.972 509.515C385.972 509.515 385.972 509.515 385.972 509.515ZM419.432 290.842C419.432 285.033 423.995 280.331 429.664 280.331C431.047 280.331 432.153 280.607 433.259 281.022C434.642 281.575 436.024 282.405 436.992 283.512C438.79 285.448 439.896 288.076 439.896 290.842C439.896 296.651 435.333 301.216 429.526 301.216C423.857 301.216 419.432 296.651 419.432 290.842C419.432 290.842 419.432 290.842 419.432 290.842ZM522.994 344.923C516.357 347.827 509.72 350.178 503.36 350.455C493.405 350.87 482.62 346.859 476.813 341.88C467.687 333.996 461.189 329.708 458.423 316.015C457.179 310.206 457.87 301.216 458.977 296.098C461.327 285.033 458.7 277.841 450.957 271.34C444.735 266.084 436.716 264.563 428.005 264.563C424.825 264.563 421.783 263.18 419.571 261.935C415.837 260.137 412.934 255.573 415.699 249.763C416.667 247.965 421.091 243.539 422.198 242.71C433.95 235.794 447.639 238.007 460.359 243.263C472.112 248.104 480.961 257.094 493.681 269.819C506.817 285.172 509.167 289.321 516.495 300.801C522.441 309.791 527.695 319.058 531.428 329.708C533.641 336.209 530.737 341.741 522.994 344.923C522.994 344.923 522.994 344.923 522.994 344.923Z" fill="#4D6BFE" transform="translate(101 200)" />
  </g>
</svg>