<?xml version="1.0" encoding="utf-8"?>
<svg width="1000px" height="1000px" viewBox="0 0 1000 1000" version="1.1" xmlns:xlink="http://www.w3.org/1999/xlink" xmlns="http://www.w3.org/2000/svg">
  <g id="Gmail">
    <path d="M0 0L1000 0L1000 1000L0 1000L0 0Z" id="矩形" fill="none" fill-rule="evenodd" stroke="none" />
    <path d="M156.171 814.629L282.571 814.629L282.571 493.029L100 346.857L100 756.114C100 785.371 121.029 814.629 156.171 814.629L156.171 814.629Z" id="形状" fill="#4285F4" stroke="none" />
    <path d="M717.429 814.629L843.829 814.629C871.886 814.629 900 792.686 900 756.171L900 346.857L717.429 493.029L717.429 814.629L717.429 814.629Z" id="形状" fill="#34A853" stroke="none" />
    <path d="M717.429 244.514L717.429 493.086L900 346.8L900 273.657C900 229.886 864.857 186 815.714 186C794.629 186 780.629 193.314 766.571 200.629L717.429 244.457L717.429 244.514Z" id="形状" fill="#FBBC04" stroke="none" />
    <path d="M282.514 493.029L282.514 244.514L500.171 412.629L717.829 244.514L717.829 493.086L500.114 661.086L282.514 493.029Z" id="形状" fill="#EA4335" stroke="none" />
    <path d="M100 273.771L100 346.857L282.571 493.029L282.571 244.514L233.429 200.686C198.286 178.743 142.114 186.057 114 222.571C107.029 237.2 100 251.829 100 273.771L100 273.771Z" id="形状" fill="#C5221F" stroke="none" />
  </g>
</svg>