<svg xmlns="http://www.w3.org/2000/svg" width="1000" height="1000" fill="none" viewBox="0 0 1000 1000"><path fill="#000" d="M0 0h1000v1000H0z"/><path fill="#fff" d="m357.818 196.603.035.002 123.174 151.678c9.33 11.33 9.397 26.912.16 36.15-9.241 9.237-24.82 9.17-36.15-.156L293.319 261.06l-32.245 32.248 123.214 151.75c9.251 11.334 9.28 26.851.067 36.058-9.215 9.203-24.736 9.163-36.064-.1l-151.678-123.21-23.065 23.024L329.02 536.305c27.488 27.492 63.558 44.144 100.273 46.303 26.92 1.583 52.568-4.732 73.971-17.843a58.55 58.55 0 0 0 13.805 21.392L740.993 810.08c17.664 17.66 42.288 21.668 55.01 8.955l23.022-23.067c12.713-12.719 8.705-37.344-8.954-55.007L586.148 517.038a58.2 58.2 0 0 0-21.372-13.783c13.112-21.403 19.428-47.05 17.846-73.97-2.159-36.718-18.816-72.785-46.304-100.274L380.844 173.539z"/></svg>