<?xml version="1.0" encoding="utf-8"?>
<svg width="1000px" height="1000px" viewBox="0 0 1000 1000" version="1.1" xmlns:xlink="http://www.w3.org/1999/xlink" xmlns="http://www.w3.org/2000/svg">
  <g id="HuggingFace">
    <path d="M0 0L1000 0L1000 1000L0 1000L0 0Z" id="矩形" fill="none" fill-rule="evenodd" stroke="none" />
    <path d="M497.727 799.171C672.196 799.171 813.631 657.736 813.631 483.267C813.631 308.798 672.196 167.363 497.727 167.363C323.258 167.363 181.824 308.798 181.824 483.267C181.824 657.736 323.258 799.171 497.727 799.171L497.727 799.171Z" id="形状" fill="#FFD21E" stroke="none" />
    <path d="M813.631 483.267C813.631 308.798 672.196 167.363 497.727 167.363C323.258 167.363 181.824 308.798 181.824 483.267C181.824 657.736 323.258 799.171 497.727 799.171C672.196 799.171 813.631 657.736 813.631 483.267L813.631 483.267ZM145.46 483.267C145.461 288.715 303.176 131 497.727 131C692.279 131 849.994 288.715 849.994 483.267C849.994 677.818 692.279 835.534 497.727 835.534C303.176 835.534 145.46 677.818 145.46 483.267L145.46 483.267Z" id="形状" fill="#FF9D0B" fill-rule="evenodd" stroke="none" />
    <path d="M600.362 397.359C611.998 401.359 616.543 425.177 628.271 418.995C644.51 410.374 653.955 392.818 652.203 374.516C650.45 356.214 637.845 340.77 620.265 335.387C602.685 330.004 583.593 335.741 571.893 349.924C560.193 364.107 558.19 383.941 566.817 400.177C572.362 410.632 589.998 393.632 600.453 397.268L600.362 397.359ZM386.275 397.359C374.638 401.359 370.002 425.177 358.366 418.995C342.127 410.374 332.681 392.818 334.434 374.516C336.186 356.214 348.792 340.77 366.372 335.387C383.952 330.004 403.044 335.741 414.744 349.924C426.443 364.107 428.447 383.941 419.819 400.177C414.274 410.632 396.547 393.632 386.184 397.268L386.275 397.359Z" id="形状" fill="#3A3B45" fill-rule="evenodd" stroke="none" />
    <path d="M495.455 615.446C584.817 615.446 613.634 535.811 613.634 494.903C613.634 473.631 599.362 480.358 576.453 491.63C555.272 502.085 526.818 516.539 495.546 516.539C430.183 516.539 377.366 453.995 377.366 494.903C377.366 535.811 406.092 615.446 495.546 615.446L495.455 615.446Z" id="形状" fill="#FF323D" stroke="none" />
    <path d="M427.001 594.629C436.698 574.923 454.151 560.137 475.182 553.811C478.819 552.72 482.546 558.993 486.455 565.447C490.091 571.629 493.909 577.902 497.727 577.902C501.818 577.902 505.909 571.72 509.818 565.629C513.909 559.266 517.909 553.084 521.818 554.266C541.347 560.465 557.666 574.076 567.272 592.174C601.18 565.447 613.635 521.812 613.635 494.903C613.635 473.631 599.362 480.358 576.453 491.63L575.181 492.267C554.181 502.721 526.181 516.539 495.455 516.539C464.728 516.539 436.819 502.721 415.729 492.267C392.093 480.54 377.275 473.176 377.275 494.903C377.275 522.63 390.547 568.174 427.001 594.629L427.001 594.629Z" id="形状" fill="#3A3B45" fill-rule="evenodd" stroke="none" />
    <path d="M711.36 440.086C727.677 440.086 740.905 426.858 740.905 410.541C740.905 394.224 727.677 380.996 711.36 380.996C695.043 380.996 681.815 394.224 681.815 410.541C681.815 426.858 695.043 440.086 711.36 440.086L711.36 440.086ZM288.64 440.086C304.957 440.086 318.185 426.858 318.185 410.541C318.185 394.224 304.957 380.996 288.64 380.996C272.323 380.996 259.095 394.224 259.095 410.541C259.095 426.858 272.323 440.086 288.64 440.086L288.64 440.086ZM227.823 540.084C213.096 540.084 200.005 546.084 190.823 557.084C182.994 566.755 178.725 578.822 178.733 591.265C173.009 589.544 167.073 588.626 161.097 588.538C147.006 588.538 134.279 593.901 125.279 603.628C108.773 620.769 105.793 646.841 118.006 667.264C109.961 673.832 104.253 682.824 101.734 692.9C99.5521 701.081 97.3703 718.354 109.007 735.99C100.141 749.621 98.8713 766.842 105.643 781.625C114.916 802.716 138.097 819.261 183.096 837.079C211.005 848.17 236.641 855.26 236.823 855.351C269.207 864.324 302.587 869.21 336.184 869.897C389.456 869.897 427.547 853.533 449.455 821.352C484.727 769.626 479.727 722.263 434.001 676.627C408.82 651.355 392.002 614.174 388.547 605.992C381.456 581.811 362.729 554.902 331.73 554.902C314.997 555.167 299.423 563.496 289.912 577.265C280.822 565.811 271.913 556.811 263.913 551.629C253.238 544.402 240.711 540.395 227.823 540.084L227.823 540.084ZM227.823 576.447C232.459 576.447 238.186 578.447 244.368 582.356C263.822 594.719 301.185 658.991 314.912 683.991C319.458 692.354 327.367 695.9 334.366 695.9C348.457 695.9 359.366 681.991 335.73 664.264C300.094 637.628 312.549 594.083 329.548 591.447C330.276 591.265 331.094 591.265 331.73 591.265C347.184 591.265 354.002 617.901 354.002 617.901C354.002 617.901 374.002 668.082 408.365 702.445C442.637 736.717 444.455 764.262 419.456 800.898C402.365 825.897 369.729 833.443 336.185 833.443C301.549 833.443 265.913 825.261 246.004 820.17C245.004 819.898 123.734 785.625 139.097 756.535C141.642 751.626 145.915 749.626 151.279 749.626C172.915 749.626 212.187 781.807 229.186 781.807C232.914 781.807 235.55 780.262 236.732 776.353C243.913 750.444 127.097 739.535 136.915 702.081C138.733 695.445 143.37 692.809 150.006 692.809C178.551 692.809 242.732 743.081 256.186 743.081C257.186 743.081 258.004 742.808 258.368 742.172C265.095 731.263 261.368 723.626 213.823 694.9C166.46 666.173 133.097 648.901 152.006 628.264C154.188 625.901 157.279 624.81 161.097 624.81C189.914 624.81 258.004 686.809 258.004 686.809C258.004 686.809 276.367 705.9 287.549 705.9C290.094 705.9 292.276 704.99 293.731 702.445C301.549 689.173 220.459 627.719 215.914 602.356C212.823 585.083 218.096 576.447 227.823 576.447L227.823 576.447Z" id="形状" fill="#FF9D0B" fill-rule="evenodd" stroke="none" />
    <path d="M419.456 800.898C444.455 764.171 442.637 736.626 408.365 702.354C374.002 668.082 354.002 617.81 354.002 617.81C354.002 617.81 346.548 588.72 329.548 591.447C312.549 594.174 300.094 637.628 335.73 664.264C371.275 690.9 328.639 708.99 314.912 683.991C301.276 658.991 263.822 594.72 244.368 582.356C225.005 570.084 211.368 576.902 215.914 602.356C220.459 627.719 301.64 689.172 293.731 702.354C285.822 715.718 258.004 686.809 258.004 686.809C258.004 686.809 171.006 607.628 152.006 628.264C133.097 648.901 166.46 666.173 213.823 694.9C261.368 723.627 265.095 731.263 258.368 742.172C251.55 753.081 146.733 664.628 136.915 702.172C127.097 739.535 243.913 750.353 236.732 776.262C229.459 802.171 154.369 727.354 139.097 756.444C123.643 785.625 245.004 819.898 246.004 820.17C285.094 830.352 384.638 851.897 419.456 800.898L419.456 800.898Z" id="形状" fill="#FFD21E" stroke="none" />
    <path d="M772.177 540.084C786.904 540.084 800.086 546.084 809.177 557.084C817.006 566.755 821.275 578.822 821.267 591.265C827.021 589.535 832.987 588.617 838.994 588.538C853.085 588.538 865.812 593.901 874.812 603.628C891.318 620.769 894.298 646.841 882.085 667.264C890.096 673.845 895.771 682.836 898.266 692.9C900.448 701.081 902.63 718.354 890.993 735.99C899.859 749.621 901.129 766.842 894.357 781.625C885.084 802.716 861.903 819.261 816.995 837.079C788.995 848.17 763.359 855.26 763.177 855.351C730.793 864.324 697.413 869.21 663.815 869.897C610.544 869.897 572.453 853.533 550.545 821.352C515.273 769.626 520.272 722.263 565.999 676.627C591.271 651.355 608.089 614.174 611.544 605.992C618.634 581.811 637.271 554.902 668.27 554.902C685.002 555.167 700.577 563.496 710.087 577.265C719.178 565.811 728.087 556.811 736.178 551.629C746.827 544.419 759.32 540.412 772.177 540.084L772.177 540.084ZM772.177 576.447C767.541 576.447 761.905 578.447 755.632 582.356C736.269 594.719 698.815 658.991 685.088 683.991C681.313 691.26 673.825 695.844 665.634 695.9C651.634 695.9 640.634 681.991 664.361 664.264C699.906 637.628 687.451 594.083 670.452 591.447C669.73 591.329 669.001 591.269 668.27 591.265C652.816 591.265 645.998 617.901 645.998 617.901C645.998 617.901 625.998 668.082 591.726 702.445C557.363 736.717 555.545 764.262 580.635 800.898C597.635 825.897 630.361 833.443 663.815 833.443C698.542 833.443 734.087 825.261 754.087 820.17C754.996 819.898 876.357 785.625 860.994 756.535C858.358 751.626 854.176 749.626 848.812 749.626C827.176 749.626 787.813 781.807 770.905 781.807C767.086 781.807 764.45 780.262 763.359 776.353C756.087 750.444 872.903 739.535 863.085 702.081C861.358 695.445 856.721 692.809 849.994 692.809C821.449 692.809 757.268 743.081 743.814 743.081C742.905 743.081 742.087 742.808 741.723 742.172C734.996 731.263 738.632 723.627 786.086 694.9C833.631 666.173 866.994 648.901 847.903 628.265C845.812 625.901 842.721 624.81 838.994 624.81C810.086 624.81 741.996 686.809 741.996 686.809C741.996 686.809 723.633 705.9 712.542 705.9C709.993 706.014 707.599 704.676 706.36 702.445C698.451 689.173 779.541 627.719 784.086 602.356C787.177 585.083 781.904 576.447 772.177 576.447L772.177 576.447Z" id="形状" fill="#FF9D0B" fill-rule="evenodd" stroke="none" />
    <path d="M580.635 800.898C555.635 764.171 557.363 736.626 591.726 702.354C625.998 668.082 645.998 617.81 645.998 617.81C645.998 617.81 653.452 588.72 670.543 591.447C687.451 594.174 699.906 637.628 664.361 664.264C628.725 690.9 671.452 708.99 685.088 683.991C698.815 658.991 736.269 594.72 755.632 582.356C774.995 570.084 788.722 576.902 784.086 602.356C779.541 627.719 698.451 689.172 706.36 702.354C714.178 715.718 741.996 686.809 741.996 686.809C741.996 686.809 829.085 607.628 847.994 628.264C866.903 648.901 833.631 666.173 786.177 694.9C738.632 723.627 734.996 731.263 741.632 742.172C748.45 753.081 853.267 664.628 863.085 702.172C872.903 739.535 756.177 750.353 763.359 776.262C770.632 802.171 845.63 727.354 860.994 756.444C876.357 785.625 755.086 819.898 754.086 820.17C714.905 830.352 615.361 851.897 580.635 800.898L580.635 800.898Z" id="形状" fill="#FFD21E" stroke="none" />
  </g>
</svg>