<?xml version="1.0" encoding="utf-8"?>
<svg width="800px" height="800px" viewBox="0 0 800 800" version="1.1" xmlns:xlink="http://www.w3.org/1999/xlink" xmlns="http://www.w3.org/2000/svg">
  <g id="Moonshot-Kimi">
    <path d="M0 0L800 0L800 800L0 800L0 0Z" id="矩形" fill="#000000" fill-rule="evenodd" stroke="none" />
    <path d="M444.795 364.426C482.809 365.305 514.071 399.234 514.071 441.021L514.071 595.631C514.079 596.01 513.932 596.375 513.664 596.643C513.397 596.911 513.031 597.058 512.653 597.05L446.213 597.05C445.835 597.058 445.469 596.911 445.201 596.643C444.934 596.375 444.787 596.01 444.795 595.631L443.66 400.142C443.66 399.291 442.185 399.149 441.958 399.943C433.05 429.163 406.894 437.39 375.575 437.39L261.419 437.39C260.651 437.39 260.029 438.013 260.029 438.78L260.029 595.66C260.029 596.427 259.406 597.05 258.639 597.05L188.596 597.05C188.227 597.042 187.877 596.889 187.621 596.623C187.366 596.357 187.227 596 187.234 595.631L187.234 219.234C187.234 218.468 187.83 217.872 188.596 217.872L258.667 217.872C259.405 217.872 260.029 218.468 260.029 219.234L260.029 363.064C260.029 363.83 260.653 364.482 261.419 364.482L351.348 364.482C351.893 364.462 352.378 364.131 352.596 363.631L417.022 218.667C417.255 218.175 417.754 217.864 418.298 217.872L495.944 217.872C496.936 217.872 497.617 218.922 497.192 219.83L453.135 314.44C440 338.525 430.326 355.575 408.426 362.837C407.631 363.121 407.802 364.454 408.624 364.454L444.795 364.454L444.795 364.426Z" id="形状" fill="#FFFFFF" stroke="none" />
    <path d="M540.567 210.667C532.766 217.22 527.66 227.915 527.66 244.057C527.66 259.177 532.482 270.922 539.716 277.957C535.943 284.199 532.114 288.567 529.22 290.922C528.738 291.291 529.106 292.397 529.702 292.34L572.539 289.22C582.099 288.511 590.298 284.908 597.163 278.752C605.39 271.773 610.128 259.773 610.128 244.057C610.128 227.915 605.39 217.22 597.163 210.667C589.333 204.142 579.801 200.851 568.539 200.851C557.702 200.851 548.397 204.142 540.567 210.667L540.567 210.667Z" id="形状" fill="#007AFF" stroke="none" />
  </g>
</svg>