<?xml version="1.0" encoding="utf-8"?>
<svg width="600px" height="600px" viewBox="0 0 600 600" version="1.1" xmlns:xlink="http://www.w3.org/1999/xlink" xmlns="http://www.w3.org/2000/svg">
  <defs>
    <path d="M0 67.7723L0 280.119C0 281.228 0.0272206 282.337 0.0816616 283.445C0.136097 284.553 0.217642 285.659 0.326291 286.762C0.435057 287.866 0.570818 288.966 0.733566 290.063C0.896314 291.161 1.08583 292.253 1.30211 293.341C1.51852 294.429 1.76145 295.511 2.03093 296.586C2.30041 297.662 2.5961 298.731 2.91798 299.793C3.23998 300.854 3.58779 301.907 3.9614 302.951C4.33501 303.995 4.73404 305.029 5.15848 306.054C5.58281 307.079 6.03209 308.093 6.50633 309.095C6.98047 310.098 7.47894 311.088 8.00174 312.067C8.52457 313.045 9.07104 314.01 9.64116 314.96C10.2113 315.912 10.8044 316.849 11.4205 317.772C12.0367 318.693 12.6751 319.6 13.3357 320.491C13.9965 321.382 14.6786 322.256 15.3821 323.114C16.0856 323.971 16.8098 324.81 17.5546 325.632C18.2994 326.454 19.0639 327.257 19.8482 328.041C20.6323 328.826 21.4353 329.59 22.2571 330.335C23.0787 331.08 23.9182 331.805 24.7756 332.508C25.6329 333.211 26.5069 333.893 27.3976 334.554C28.2885 335.214 29.1949 335.853 30.117 336.47C31.0392 337.085 31.9759 337.678 32.9271 338.249C33.8784 338.819 34.8431 339.366 35.8212 339.889C36.7993 340.412 37.7895 340.911 38.792 341.385C39.7946 341.859 40.8082 342.309 41.8328 342.732C42.8574 343.157 43.8918 343.556 44.9359 343.93C45.9802 344.304 47.033 344.652 48.0942 344.973C49.1555 345.296 50.224 345.591 51.2998 345.86C52.3756 346.13 53.4574 346.373 54.5451 346.59C55.6329 346.806 56.7252 346.995 57.8223 347.158C58.9193 347.32 60.0197 347.456 61.1234 347.566C62.2271 347.674 63.3327 347.756 64.4404 347.81C65.5482 347.864 66.6567 347.891 67.7662 347.891L67.7662 347.891C68.8753 347.891 69.9832 347.864 71.0901 347.81C72.198 347.756 73.3037 347.674 74.4072 347.566C75.5117 347.456 76.6124 347.32 77.709 347.158C78.8057 346.995 79.8979 346.806 80.9855 346.59C82.0732 346.373 83.1551 346.13 84.2315 345.86C85.3067 345.591 86.3751 345.296 87.4368 344.973C88.4984 344.652 89.5511 344.304 90.5947 343.93C91.6394 343.556 92.6739 343.157 93.6983 342.732C94.7227 342.309 95.7364 341.859 96.7394 341.385C97.7411 340.911 98.731 340.412 99.709 339.889C100.687 339.366 101.652 338.819 102.604 338.249C103.555 337.678 104.492 337.085 105.413 336.47C106.336 335.853 107.243 335.214 108.134 334.554C109.024 333.893 109.898 333.211 110.755 332.508C111.612 331.805 112.452 331.08 113.274 330.335C114.096 329.59 114.899 328.826 115.683 328.041C116.467 327.257 117.232 326.454 117.977 325.632C118.721 324.81 119.445 323.971 120.149 323.114C120.853 322.256 121.535 321.382 122.195 320.491C122.856 319.6 123.494 318.693 124.11 317.772C124.726 316.849 125.32 315.912 125.89 314.96C126.461 314.01 127.007 313.045 127.529 312.067C128.051 311.088 128.55 310.098 129.024 309.095C129.499 308.093 129.948 307.079 130.373 306.054C130.798 305.029 131.196 303.995 131.569 302.951C131.943 301.907 132.291 300.854 132.613 299.793C132.935 298.731 133.23 297.662 133.5 296.586C133.769 295.511 134.012 294.429 134.229 293.341C134.446 292.253 134.636 291.161 134.798 290.063C134.961 288.966 135.096 287.866 135.205 286.762C135.313 285.659 135.394 284.553 135.449 283.445C135.504 282.337 135.531 281.228 135.531 280.119L135.531 67.7721C135.531 66.6631 135.504 65.5546 135.449 64.4467C135.394 63.339 135.313 62.2331 135.205 61.1293C135.096 60.0255 134.961 58.925 134.798 57.828C134.636 56.7308 134.446 55.6383 134.229 54.5505C134.012 53.4626 133.769 52.3807 133.5 51.3049C133.23 50.229 132.935 49.1603 132.613 48.0989C132.291 47.0376 131.943 45.9847 131.569 44.9403C131.196 43.8961 130.798 42.8616 130.373 41.8369C129.948 40.8122 129.499 39.7985 129.024 38.7958C128.55 37.7932 128.051 36.8028 127.529 35.8247C127.007 34.8465 126.461 33.8817 125.89 32.9303C125.32 31.979 124.726 31.0422 124.11 30.1199C123.494 29.1978 122.856 28.2913 122.195 27.4004C121.535 26.5095 120.853 25.6354 120.149 24.778C119.445 23.9206 118.721 23.081 117.977 22.2592C117.232 21.4373 116.467 20.6343 115.683 19.85C114.899 19.0657 114.096 18.3011 113.274 17.5563C112.452 16.8114 111.612 16.0872 110.755 15.3836C109.898 14.6799 109.024 13.9977 108.134 13.337C107.243 12.6763 106.336 12.0379 105.413 11.4217C104.492 10.8055 103.555 10.2123 102.604 9.64204C101.652 9.07182 100.687 8.52528 99.709 8.00245C98.731 7.47961 97.7411 6.98108 96.7394 6.50684C95.7364 6.03263 94.7227 5.5833 93.6983 5.15884C92.6739 4.73439 91.6394 4.33534 90.5947 3.96168C89.5511 3.58802 88.4984 3.24021 87.4368 2.91824C86.3751 2.59628 85.3067 2.30054 84.2315 2.03104C83.1551 1.76154 82.0732 1.5186 80.9855 1.30222C79.8979 1.08584 78.8057 0.896274 77.709 0.733529C76.6124 0.570785 75.5117 0.435056 74.4072 0.32634C73.3037 0.217626 72.198 0.136057 71.0901 0.0816351C69.9832 0.0272117 68.8753 0 67.7662 0L67.7662 0C66.6567 0 65.5482 0.0272122 64.4404 0.0816367C63.3326 0.13606 62.2269 0.217629 61.1233 0.326344C60.0196 0.435058 58.9193 0.570788 57.8223 0.733534C56.7252 0.896279 55.6329 1.08584 54.5451 1.30223C53.4574 1.51861 52.3756 1.76155 51.2998 2.03105C50.224 2.30055 49.1555 2.59628 48.0942 2.91825C47.033 3.24022 45.9802 3.58803 44.9359 3.96169C43.8918 4.33535 42.8574 4.73441 41.8328 5.15886C40.8082 5.5833 39.7946 6.03264 38.792 6.50686C37.7894 6.98108 36.7991 7.47961 35.821 8.00246C34.8429 8.52531 33.8783 9.07184 32.9271 9.64206C31.9758 10.2123 31.0391 10.8055 30.117 11.4217C29.1948 12.0379 28.2884 12.6763 27.3976 13.3371C26.5068 13.9978 25.6328 14.6799 24.7756 15.3836C23.9182 16.0872 23.0787 16.8115 22.2569 17.5563C21.4353 18.3012 20.6323 19.0658 19.848 19.85C19.0638 20.6343 18.2994 21.4373 17.5546 22.2592C16.8098 23.081 16.0856 23.9206 15.3821 24.778C14.6785 25.6354 13.9963 26.5095 13.3357 27.4004C12.6751 28.2913 12.0367 29.1978 11.4205 30.1199C10.8044 31.0422 10.2113 31.979 9.64116 32.9303C9.07092 33.8817 8.52446 34.8465 8.00174 35.8247C7.47894 36.8028 6.9804 37.7932 6.50617 38.7958C6.03203 39.7985 5.58275 40.8122 5.15831 41.8369C4.73388 42.8616 4.33485 43.8961 3.96123 44.9405C3.58762 45.9848 3.23987 47.0376 2.91798 48.099C2.59598 49.1603 2.3003 50.229 2.03093 51.3049C1.76145 52.3808 1.51852 53.4627 1.30211 54.5505C1.08571 55.6383 0.896139 56.7308 0.733391 57.828C0.570759 58.925 0.435057 60.0255 0.326291 61.1294C0.217642 62.2332 0.136097 63.339 0.0816616 64.4467C0.0272206 65.5546 0 66.6631 0 67.7723L0 67.7723Z" id="path_1" />
    <clipPath id="clip_1">
      <use xlink:href="#path_1" clip-rule="evenodd" fill-rule="evenodd" />
    </clipPath>
  </defs>
  <g id="NextChat">
    <path d="M0 0L600 0L600 600L0 600L0 0Z" id="矩形" fill="#3A86FA" fill-rule="evenodd" stroke="none" />
    <path d="M104.087 365.415L164.199 200.258C164.578 199.216 164.983 198.183 165.413 197.161C165.843 196.139 166.297 195.128 166.777 194.128C167.257 193.128 167.761 192.14 168.289 191.165C168.817 190.19 169.369 189.228 169.944 188.28C170.519 187.332 171.118 186.398 171.739 185.48C172.36 184.561 173.003 183.658 173.669 182.771C174.334 181.884 175.021 181.013 175.729 180.16C176.437 179.306 177.166 178.471 177.915 177.653C178.665 176.835 179.434 176.037 180.222 175.257C181.011 174.477 181.818 173.717 182.644 172.976C183.469 172.236 184.313 171.517 185.174 170.818C186.035 170.119 186.913 169.441 187.807 168.786C188.702 168.13 189.611 167.496 190.537 166.885C191.462 166.274 192.402 165.686 193.357 165.121C194.311 164.556 195.279 164.015 196.26 163.498C197.241 162.98 198.234 162.487 199.239 162.018C200.244 161.55 201.26 161.106 202.287 160.687C203.314 160.268 204.35 159.875 205.397 159.507C206.443 159.139 207.497 158.797 208.56 158.481C209.623 158.165 210.693 157.875 211.771 157.611C212.848 157.348 213.931 157.111 215.02 156.9C216.109 156.69 217.202 156.506 218.3 156.349C219.398 156.193 220.499 156.063 221.604 155.96C222.708 155.858 223.814 155.782 224.922 155.734C226.03 155.685 227.138 155.664 228.247 155.67C229.356 155.676 230.465 155.709 231.572 155.77C232.679 155.83 233.785 155.918 234.888 156.033C235.991 156.147 237.09 156.289 238.187 156.458C239.283 156.627 240.374 156.822 241.461 157.044C242.547 157.267 243.628 157.516 244.702 157.791C245.776 158.066 246.843 158.368 247.903 158.695C248.962 159.023 250.013 159.377 251.055 159.756L251.055 159.756C252.097 160.135 253.13 160.54 254.152 160.97C255.174 161.4 256.185 161.855 257.185 162.334C258.185 162.814 259.173 163.318 260.148 163.846C261.123 164.374 262.085 164.926 263.033 165.501C263.981 166.077 264.915 166.675 265.833 167.296C266.752 167.917 267.655 168.56 268.542 169.226C269.429 169.891 270.3 170.578 271.153 171.287C272.007 171.995 272.842 172.724 273.66 173.473C274.477 174.222 275.276 174.991 276.056 175.779C276.836 176.568 277.596 177.375 278.337 178.201C279.077 179.027 279.796 179.87 280.495 180.731C281.194 181.592 281.872 182.47 282.527 183.365C283.183 184.259 283.817 185.169 284.428 186.094C285.039 187.02 285.627 187.96 286.192 188.914C286.757 189.868 287.298 190.836 287.815 191.817C288.333 192.798 288.826 193.791 289.295 194.796C289.763 195.801 290.207 196.817 290.626 197.844C291.045 198.871 291.438 199.908 291.806 200.954C292.174 202 292.516 203.055 292.832 204.118C293.149 205.181 293.438 206.251 293.701 207.328C293.965 208.405 294.203 209.489 294.413 210.578C294.623 211.666 294.806 212.76 294.963 213.857C295.12 214.955 295.25 216.057 295.353 217.161C295.455 218.265 295.531 219.371 295.58 220.479C295.627 221.587 295.648 222.696 295.642 223.805C295.637 224.914 295.603 226.022 295.543 227.129C295.482 228.237 295.395 229.342 295.281 230.445C295.165 231.548 295.023 232.648 294.855 233.744C294.686 234.84 294.491 235.931 294.269 237.018C294.047 238.105 293.798 239.185 293.522 240.259C293.247 241.334 292.945 242.4 292.617 243.46C292.29 244.52 291.937 245.571 291.558 246.613L231.446 411.77C231.066 412.812 230.661 413.843 230.231 414.865C229.801 415.887 229.346 416.898 228.867 417.898C228.388 418.898 227.884 419.886 227.356 420.862C226.827 421.836 226.275 422.798 225.7 423.746C225.124 424.694 224.526 425.628 223.905 426.547C223.284 427.465 222.641 428.368 221.975 429.256C221.309 430.143 220.622 431.013 219.914 431.866C219.206 432.72 218.477 433.556 217.729 434.374C216.979 435.191 216.21 435.99 215.421 436.77C214.633 437.549 213.826 438.309 213 439.049C212.174 439.789 211.331 440.509 210.47 441.209C209.609 441.908 208.731 442.585 207.836 443.24C206.942 443.897 206.033 444.531 205.107 445.142C204.182 445.752 203.242 446.34 202.287 446.905C201.333 447.47 200.365 448.011 199.384 448.529C198.403 449.046 197.41 449.539 196.405 450.008C195.4 450.477 194.384 450.921 193.357 451.34C192.33 451.758 191.294 452.151 190.247 452.519C189.201 452.888 188.146 453.23 187.083 453.546C186.02 453.862 184.95 454.152 183.873 454.415C182.796 454.679 181.713 454.916 180.624 455.127C179.535 455.337 178.441 455.521 177.344 455.676C176.246 455.833 175.145 455.963 174.04 456.066C172.936 456.169 171.83 456.244 170.722 456.293C169.614 456.341 168.506 456.362 167.397 456.356C166.288 456.35 165.179 456.317 164.072 456.256C162.964 456.196 161.859 456.108 160.756 455.994C159.653 455.879 158.553 455.737 157.457 455.569C156.361 455.4 155.269 455.205 154.183 454.983C153.096 454.76 152.016 454.511 150.942 454.236C149.868 453.96 148.801 453.658 147.741 453.33C146.682 453.004 145.631 452.65 144.588 452.271L144.588 452.271C143.546 451.892 142.514 451.487 141.492 451.056C140.47 450.626 139.459 450.171 138.459 449.692C137.459 449.213 136.471 448.709 135.496 448.181C134.52 447.653 133.559 447.101 132.611 446.525C131.663 445.949 130.729 445.351 129.81 444.731C128.892 444.109 127.989 443.466 127.102 442.8C126.214 442.135 125.344 441.448 124.491 440.739C123.637 440.031 122.802 439.302 121.984 438.554C121.166 437.805 120.368 437.035 119.588 436.247C118.808 435.458 118.048 434.651 117.307 433.825C116.567 433 115.847 432.157 115.148 431.296C114.449 430.434 113.772 429.556 113.117 428.661C112.461 427.768 111.827 426.858 111.216 425.932C110.605 425.007 110.017 424.067 109.452 423.112C108.887 422.158 108.346 421.19 107.828 420.21C107.311 419.229 106.818 418.235 106.349 417.231C105.881 416.225 105.437 415.209 105.018 414.182C104.599 413.155 104.206 412.118 103.838 411.072C103.47 410.026 103.128 408.972 102.811 407.909C102.495 406.846 102.206 405.775 101.942 404.698C101.679 403.621 101.441 402.538 101.231 401.45C101.021 400.36 100.837 399.266 100.681 398.168C100.524 397.07 100.394 395.969 100.291 394.866C100.188 393.761 100.113 392.655 100.064 391.547C100.016 390.439 99.9948 389.331 100.001 388.221C100.007 387.113 100.04 386.005 100.101 384.897C100.161 383.789 100.249 382.684 100.364 381.582C100.478 380.478 100.62 379.378 100.789 378.282C100.957 377.186 101.153 376.095 101.375 375.009C101.598 373.922 101.847 372.841 102.122 371.767C102.397 370.693 102.699 369.626 103.026 368.566C103.354 367.507 103.707 366.457 104.087 365.415L104.087 365.415Z" id="1" fill="#F2F7FF" fill-rule="evenodd" stroke="none" />
    <path d="M308.443 352.445L368.555 187.288C368.934 186.246 369.339 185.214 369.77 184.192C370.2 183.17 370.654 182.159 371.134 181.159C371.613 180.159 372.117 179.171 372.645 178.196C373.173 177.22 373.725 176.259 374.301 175.311C374.876 174.363 375.474 173.429 376.095 172.51C376.717 171.592 377.36 170.689 378.026 169.802C378.691 168.914 379.378 168.044 380.086 167.191C380.794 166.337 381.522 165.501 382.272 164.684C383.021 163.866 383.79 163.068 384.579 162.288C385.368 161.508 386.175 160.748 387.001 160.007C387.826 159.267 388.669 158.547 389.53 157.848C390.391 157.149 391.27 156.472 392.164 155.817C393.058 155.161 393.968 154.527 394.893 153.916C395.819 153.305 396.759 152.717 397.713 152.152C398.668 151.587 399.635 151.046 400.616 150.528C401.597 150.011 402.59 149.518 403.595 149.049C404.601 148.581 405.617 148.137 406.643 147.718C407.671 147.299 408.707 146.906 409.754 146.538C410.8 146.17 411.854 145.828 412.916 145.511C413.98 145.195 415.05 144.906 416.128 144.642C417.205 144.378 418.288 144.141 419.376 143.931C420.466 143.721 421.56 143.537 422.658 143.38C423.756 143.224 424.856 143.094 425.96 142.991C427.064 142.888 428.171 142.813 429.278 142.764C430.386 142.716 431.495 142.695 432.604 142.701C433.713 142.707 434.821 142.74 435.929 142.801C437.036 142.861 438.142 142.949 439.244 143.063C440.348 143.178 441.448 143.32 442.544 143.489C443.64 143.657 444.731 143.853 445.817 144.075C446.904 144.298 447.985 144.547 449.059 144.822C450.133 145.097 451.2 145.399 452.26 145.726C453.32 146.054 454.37 146.408 455.411 146.787L455.411 146.787C456.453 147.166 457.486 147.571 458.508 148.001C459.531 148.431 460.542 148.886 461.542 149.365C462.541 149.845 463.529 150.349 464.505 150.877C465.48 151.405 466.442 151.957 467.39 152.532C468.338 153.107 469.271 153.706 470.191 154.327C471.109 154.948 472.012 155.591 472.899 156.257C473.787 156.923 474.657 157.609 475.51 158.317C476.364 159.026 477.199 159.755 478.017 160.504C478.834 161.253 479.633 162.022 480.413 162.81C481.193 163.599 481.952 164.406 482.693 165.231C483.433 166.057 484.153 166.901 484.853 167.762C485.551 168.623 486.228 169.501 486.884 170.395C487.54 171.29 488.173 172.2 488.784 173.125C489.395 174.05 489.983 174.99 490.548 175.945C491.113 176.899 491.654 177.867 492.172 178.848C492.689 179.829 493.182 180.822 493.652 181.827C494.12 182.832 494.564 183.848 494.982 184.875C495.401 185.902 495.795 186.939 496.163 187.985C496.531 189.031 496.873 190.086 497.189 191.149C497.505 192.212 497.795 193.282 498.058 194.359C498.322 195.436 498.56 196.519 498.77 197.608C498.98 198.697 499.163 199.79 499.32 200.888C499.477 201.986 499.607 203.087 499.709 204.192C499.812 205.296 499.888 206.402 499.937 207.51C499.984 208.618 500.005 209.726 499.999 210.835C499.993 211.945 499.96 213.053 499.9 214.16C499.839 215.268 499.752 216.373 499.637 217.476C499.522 218.579 499.38 219.679 499.212 220.775C499.043 221.871 498.847 222.962 498.626 224.049C498.404 225.136 498.155 226.216 497.879 227.29C497.604 228.364 497.302 229.431 496.974 230.491C496.646 231.55 496.292 232.601 495.913 233.643L435.801 398.799C435.422 399.842 435.017 400.873 434.588 401.895C434.158 402.918 433.703 403.929 433.224 404.929C432.744 405.93 432.241 406.917 431.713 407.892C431.184 408.867 430.632 409.828 430.057 410.777C429.481 411.724 428.883 412.658 428.262 413.578C427.641 414.496 426.997 415.398 426.332 416.286C425.666 417.174 424.979 418.044 424.271 418.897C423.562 419.75 422.834 420.586 422.086 421.404C421.336 422.221 420.567 423.02 419.778 423.8C418.99 424.581 418.182 425.341 417.356 426.081C416.53 426.821 415.687 427.541 414.827 428.24C413.966 428.938 413.088 429.615 412.193 430.27C411.299 430.927 410.389 431.561 409.464 432.172C408.539 432.783 407.599 433.37 406.644 433.935C405.69 434.5 404.722 435.041 403.74 435.559C402.76 436.077 401.767 436.57 400.762 437.039C399.757 437.507 398.74 437.951 397.714 438.37C396.687 438.789 395.65 439.182 394.604 439.55C393.558 439.918 392.503 440.26 391.44 440.576C390.377 440.892 389.307 441.182 388.23 441.445C387.153 441.709 386.07 441.947 384.981 442.157C383.891 442.368 382.797 442.551 381.7 442.708C380.602 442.864 379.501 442.993 378.398 443.096C377.293 443.199 376.187 443.275 375.079 443.324C373.971 443.372 372.862 443.393 371.753 443.386C370.645 443.38 369.537 443.347 368.429 443.287C367.321 443.226 366.216 443.139 365.113 443.025C364.01 442.91 362.91 442.768 361.814 442.599C360.718 442.431 359.626 442.235 358.54 442.013C357.453 441.79 356.372 441.541 355.298 441.266C354.224 440.99 353.157 440.689 352.097 440.362C351.038 440.034 349.987 439.681 348.945 439.301L348.945 439.301C347.903 438.922 346.871 438.518 345.849 438.088C344.827 437.657 343.816 437.202 342.816 436.723C341.816 436.243 340.828 435.739 339.852 435.211C338.877 434.683 337.916 434.131 336.968 433.556C336.02 432.981 335.086 432.383 334.167 431.761C333.249 431.14 332.346 430.496 331.458 429.83C330.571 429.165 329.701 428.478 328.848 427.77C327.994 427.062 327.158 426.334 326.34 425.584C325.523 424.835 324.724 424.066 323.944 423.277C323.165 422.489 322.405 421.682 321.664 420.857C320.924 420.031 320.204 419.187 319.505 418.326C318.806 417.465 318.129 416.587 317.474 415.692C316.818 414.798 316.183 413.888 315.572 412.962C314.962 412.037 314.374 411.097 313.809 410.143C313.244 409.188 312.703 408.221 312.185 407.24C311.668 406.259 311.175 405.266 310.706 404.261C310.237 403.256 309.793 402.24 309.374 401.213C308.956 400.185 308.563 399.149 308.195 398.102C307.827 397.056 307.484 396.002 307.168 394.94C306.852 393.876 306.562 392.806 306.3 391.728C306.035 390.651 305.798 389.568 305.587 388.48C305.376 387.391 305.193 386.298 305.037 385.2C304.88 384.102 304.751 383.001 304.648 381.896C304.545 380.792 304.47 379.685 304.421 378.577C304.372 377.47 304.351 376.361 304.358 375.252C304.364 374.143 304.397 373.035 304.458 371.928C304.518 370.82 304.606 369.715 304.72 368.612C304.835 367.509 304.977 366.409 305.146 365.312C305.314 364.216 305.509 363.125 305.731 362.039C305.954 360.953 306.203 359.872 306.478 358.797C306.754 357.723 307.056 356.656 307.384 355.597C307.71 354.538 308.063 353.487 308.443 352.445L308.443 352.445Z" id="4" fill="#F5F8FF" fill-rule="evenodd" stroke="none" />
    <g id="2+3" transform="translate(130.83429 127)">
      <path d="M292.064 201.491L144.569 48.7556C143.799 47.9578 143.009 47.1793 142.2 46.4201C141.391 45.6609 140.565 44.9222 139.72 44.2039C138.875 43.4857 138.013 42.7887 137.135 42.1128C136.255 41.4362 135.359 40.7818 134.448 40.1497C133.537 39.5176 132.611 38.9084 131.67 38.3222C130.729 37.7351 129.774 37.1715 128.805 36.6315C127.836 36.0923 126.855 35.5767 125.86 35.0847C124.867 34.5935 123.861 34.1269 122.844 33.6849C121.827 33.2419 120.799 32.8248 119.762 32.4336C118.725 32.0415 117.678 31.6753 116.622 31.3349C115.567 30.9945 114.504 30.6803 113.433 30.3923C112.362 30.1043 111.285 29.8423 110.201 29.6066C109.117 29.3717 108.028 29.1631 106.934 28.981C105.84 28.799 104.742 28.644 103.64 28.5161C102.539 28.3881 101.435 28.2875 100.329 28.2143C99.2218 28.1402 98.114 28.0936 97.0054 28.0746C95.896 28.0546 94.7872 28.0624 93.6791 28.0979C92.5702 28.1324 91.463 28.1944 90.3575 28.2838C89.2528 28.3741 88.1506 28.4909 87.0509 28.6343C85.9511 28.7779 84.8553 28.9482 83.7637 29.1451C82.6727 29.3429 81.587 29.567 80.5066 29.8175C79.4261 30.0681 78.3524 30.345 77.2855 30.6483C76.2187 30.9516 75.16 31.2808 74.1093 31.6359C73.0586 31.9912 72.0176 32.3723 70.9863 32.7794C69.9543 33.1857 68.9329 33.6171 67.9221 34.0735C66.9112 34.53 65.9123 35.011 64.9253 35.5167C63.9382 36.0224 62.9644 36.5522 62.0038 37.1061C61.0425 37.6593 60.0952 38.2357 59.1621 38.8353C58.2298 39.4357 57.3126 40.0585 56.4105 40.7035C55.5084 41.3486 54.6223 42.0151 53.7522 42.7031C52.8829 43.3918 52.0311 44.1013 51.1967 44.8317C50.3622 45.5623 49.5459 46.3128 48.7478 47.0835L48.7478 47.0835C47.95 47.854 47.1718 48.6432 46.4133 49.451C45.6539 50.2597 44.915 51.0863 44.1966 51.9308C43.4781 52.7769 42.7809 53.6394 42.105 54.5182C41.4291 55.397 40.7749 56.2918 40.1424 57.2025C39.5106 58.114 38.9014 59.0407 38.3147 59.9826C37.7279 60.9228 37.1645 61.8775 36.6244 62.8466C36.0843 63.8156 35.5687 64.797 35.0777 65.7909C34.586 66.7856 34.1191 67.7915 33.6772 68.8085C33.2345 69.8248 32.8172 70.8519 32.4253 71.8898C32.0341 72.927 31.6684 73.9733 31.3281 75.0289C30.9878 76.0845 30.6733 77.1482 30.3846 78.2198C30.0967 79.2907 29.8351 80.3677 29.5997 81.4507C29.3644 82.5353 29.1556 83.6247 28.9736 84.719C28.7924 85.8126 28.6374 86.9097 28.5088 88.0105C28.3809 89.1122 28.2802 90.2167 28.2065 91.3241C28.1321 92.4307 28.0856 93.5385 28.067 94.6477C28.0477 95.756 28.0555 96.8648 28.0904 97.9741C28.1254 99.0817 28.1876 100.188 28.2769 101.294C28.3662 102.399 28.4828 103.502 28.6265 104.602C28.7703 105.702 28.9408 106.797 29.1383 107.888C29.3357 108.98 29.5596 110.066 29.8099 111.146C30.0602 112.227 30.3374 113.3 30.6415 114.366C30.9447 115.433 31.2741 116.492 31.6296 117.543C31.9843 118.593 32.3651 119.634 32.772 120.667C33.1781 121.699 33.6096 122.719 34.0664 123.729C34.5232 124.74 35.0042 125.739 35.5094 126.726C36.0153 127.713 36.5451 128.688 37.0986 129.649C37.6521 130.609 38.2287 131.556 38.8282 132.489C39.4278 133.422 40.0503 134.34 40.696 135.243C41.3408 136.144 42.0075 137.03 42.696 137.899C43.3845 138.768 44.0941 139.62 44.8248 140.455C45.5546 141.29 46.3048 142.107 47.0752 142.905L194.57 295.64C195.34 296.438 196.13 297.216 196.939 297.974C197.748 298.733 198.574 299.472 199.419 300.191C200.264 300.91 201.126 301.607 202.005 302.283C202.884 302.959 203.779 303.613 204.691 304.245C205.602 304.877 206.529 305.486 207.469 306.074C208.411 306.66 209.366 307.223 210.335 307.763C211.303 308.303 212.285 308.818 213.279 309.31C214.273 309.802 215.278 310.269 216.295 310.711C217.312 311.153 218.34 311.57 219.378 311.962C220.415 312.353 221.462 312.719 222.517 313.06C223.572 313.401 224.635 313.715 225.706 314.004C226.777 314.292 227.855 314.553 228.939 314.788C230.022 315.024 231.111 315.233 232.205 315.414C233.299 315.596 234.397 315.751 235.499 315.879C236.601 316.007 237.705 316.108 238.811 316.182C239.918 316.255 241.026 316.302 242.134 316.321C243.243 316.341 244.352 316.333 245.46 316.298C246.569 316.262 247.676 316.2 248.782 316.11C249.887 316.021 250.989 315.905 252.089 315.762C253.188 315.618 254.284 315.447 255.376 315.249C256.467 315.052 257.553 314.829 258.633 314.578C259.714 314.327 260.788 314.05 261.854 313.746C262.921 313.443 263.979 313.114 265.029 312.759C266.08 312.403 267.122 312.022 268.153 311.616C269.185 311.21 270.206 310.778 271.217 310.321C272.228 309.865 273.226 309.384 274.214 308.878C275.201 308.372 276.175 307.843 277.136 307.29C278.097 306.736 279.044 306.159 279.977 305.559C280.91 304.959 281.827 304.337 282.729 303.692C283.631 303.047 284.517 302.38 285.387 301.691C286.256 301.003 287.108 300.293 287.943 299.563C288.777 298.833 289.593 298.083 290.391 297.313L290.391 297.313C291.189 296.542 291.967 295.752 292.726 294.944C293.485 294.135 294.224 293.308 294.943 292.463C295.661 291.618 296.358 290.757 297.034 289.877C297.71 288.998 298.365 288.103 298.997 287.192C299.629 286.281 300.238 285.354 300.825 284.413C301.412 283.472 301.975 282.517 302.515 281.548C303.054 280.579 303.57 279.598 304.062 278.604C304.553 277.61 305.02 276.604 305.462 275.587C305.905 274.57 306.322 273.543 306.714 272.505C307.105 271.468 307.471 270.421 307.812 269.366C308.152 268.31 308.467 267.247 308.755 266.176C309.043 265.105 309.305 264.028 309.54 262.944C309.775 261.86 309.984 260.771 310.166 259.677C310.348 258.583 310.503 257.485 310.63 256.384C310.758 255.282 310.859 254.178 310.933 253.071C311.007 251.965 311.053 250.857 311.073 249.748C311.092 248.639 311.084 247.531 311.049 246.422C311.014 245.314 310.952 244.207 310.862 243.101C310.773 241.996 310.656 240.893 310.513 239.793C310.369 238.694 310.199 237.598 310.002 236.507C309.804 235.416 309.58 234.33 309.329 233.249C309.079 232.169 308.802 231.095 308.498 230.029C308.195 228.962 307.866 227.903 307.51 226.853C307.155 225.802 306.774 224.761 306.368 223.729C305.961 222.697 305.53 221.676 305.073 220.665C304.616 219.654 304.135 218.656 303.63 217.669C303.124 216.682 302.595 215.708 302.041 214.747C301.487 213.785 300.911 212.838 300.311 211.906C299.711 210.973 299.088 210.055 298.443 209.153C297.798 208.251 297.132 207.365 296.443 206.496C295.755 205.626 295.045 204.774 294.315 203.94C293.585 203.105 292.834 202.289 292.064 201.491L292.064 201.491Z" id="2" fill="#E1ECFE" fill-rule="evenodd" stroke="none" />
      <g id="遮罩组">
        <path d="M0 67.7723L0 280.119C0 281.228 0.0272206 282.337 0.0816616 283.445C0.136097 284.553 0.217642 285.659 0.326291 286.762C0.435057 287.866 0.570818 288.966 0.733566 290.063C0.896314 291.161 1.08583 292.253 1.30211 293.341C1.51852 294.429 1.76145 295.511 2.03093 296.586C2.30041 297.662 2.5961 298.731 2.91798 299.793C3.23998 300.854 3.58779 301.907 3.9614 302.951C4.33501 303.995 4.73404 305.029 5.15848 306.054C5.58281 307.079 6.03209 308.093 6.50633 309.095C6.98047 310.098 7.47894 311.088 8.00174 312.067C8.52457 313.045 9.07104 314.01 9.64116 314.96C10.2113 315.912 10.8044 316.849 11.4205 317.772C12.0367 318.693 12.6751 319.6 13.3357 320.491C13.9965 321.382 14.6786 322.256 15.3821 323.114C16.0856 323.971 16.8098 324.81 17.5546 325.632C18.2994 326.454 19.0639 327.257 19.8482 328.041C20.6323 328.826 21.4353 329.59 22.2571 330.335C23.0787 331.08 23.9182 331.805 24.7756 332.508C25.6329 333.211 26.5069 333.893 27.3976 334.554C28.2885 335.214 29.1949 335.853 30.117 336.47C31.0392 337.085 31.9759 337.678 32.9271 338.249C33.8784 338.819 34.8431 339.366 35.8212 339.889C36.7993 340.412 37.7895 340.911 38.792 341.385C39.7946 341.859 40.8082 342.309 41.8328 342.732C42.8574 343.157 43.8918 343.556 44.9359 343.93C45.9802 344.304 47.033 344.652 48.0942 344.973C49.1555 345.296 50.224 345.591 51.2998 345.86C52.3756 346.13 53.4574 346.373 54.5451 346.59C55.6329 346.806 56.7252 346.995 57.8223 347.158C58.9193 347.32 60.0197 347.456 61.1234 347.566C62.2271 347.674 63.3327 347.756 64.4404 347.81C65.5482 347.864 66.6567 347.891 67.7662 347.891L67.7662 347.891C68.8753 347.891 69.9832 347.864 71.0901 347.81C72.198 347.756 73.3037 347.674 74.4072 347.566C75.5117 347.456 76.6124 347.32 77.709 347.158C78.8057 346.995 79.8979 346.806 80.9855 346.59C82.0732 346.373 83.1551 346.13 84.2315 345.86C85.3067 345.591 86.3751 345.296 87.4368 344.973C88.4984 344.652 89.5511 344.304 90.5947 343.93C91.6394 343.556 92.6739 343.157 93.6983 342.732C94.7227 342.309 95.7364 341.859 96.7394 341.385C97.7411 340.911 98.731 340.412 99.709 339.889C100.687 339.366 101.652 338.819 102.604 338.249C103.555 337.678 104.492 337.085 105.413 336.47C106.336 335.853 107.243 335.214 108.134 334.554C109.024 333.893 109.898 333.211 110.755 332.508C111.612 331.805 112.452 331.08 113.274 330.335C114.096 329.59 114.899 328.826 115.683 328.041C116.467 327.257 117.232 326.454 117.977 325.632C118.721 324.81 119.445 323.971 120.149 323.114C120.853 322.256 121.535 321.382 122.195 320.491C122.856 319.6 123.494 318.693 124.11 317.772C124.726 316.849 125.32 315.912 125.89 314.96C126.461 314.01 127.007 313.045 127.529 312.067C128.051 311.088 128.55 310.098 129.024 309.095C129.499 308.093 129.948 307.079 130.373 306.054C130.798 305.029 131.196 303.995 131.569 302.951C131.943 301.907 132.291 300.854 132.613 299.793C132.935 298.731 133.23 297.662 133.5 296.586C133.769 295.511 134.012 294.429 134.229 293.341C134.446 292.253 134.636 291.161 134.798 290.063C134.961 288.966 135.096 287.866 135.205 286.762C135.313 285.659 135.394 284.553 135.449 283.445C135.504 282.337 135.531 281.228 135.531 280.119L135.531 67.7721C135.531 66.6631 135.504 65.5546 135.449 64.4467C135.394 63.339 135.313 62.2331 135.205 61.1293C135.096 60.0255 134.961 58.925 134.798 57.828C134.636 56.7308 134.446 55.6383 134.229 54.5505C134.012 53.4626 133.769 52.3807 133.5 51.3049C133.23 50.229 132.935 49.1603 132.613 48.0989C132.291 47.0376 131.943 45.9847 131.569 44.9403C131.196 43.8961 130.798 42.8616 130.373 41.8369C129.948 40.8122 129.499 39.7985 129.024 38.7958C128.55 37.7932 128.051 36.8028 127.529 35.8247C127.007 34.8465 126.461 33.8817 125.89 32.9303C125.32 31.979 124.726 31.0422 124.11 30.1199C123.494 29.1978 122.856 28.2913 122.195 27.4004C121.535 26.5095 120.853 25.6354 120.149 24.778C119.445 23.9206 118.721 23.081 117.977 22.2592C117.232 21.4373 116.467 20.6343 115.683 19.85C114.899 19.0657 114.096 18.3011 113.274 17.5563C112.452 16.8114 111.612 16.0872 110.755 15.3836C109.898 14.6799 109.024 13.9977 108.134 13.337C107.243 12.6763 106.336 12.0379 105.413 11.4217C104.492 10.8055 103.555 10.2123 102.604 9.64204C101.652 9.07182 100.687 8.52528 99.709 8.00245C98.731 7.47961 97.7411 6.98108 96.7394 6.50684C95.7364 6.03263 94.7227 5.5833 93.6983 5.15884C92.6739 4.73439 91.6394 4.33534 90.5947 3.96168C89.5511 3.58802 88.4984 3.24021 87.4368 2.91824C86.3751 2.59628 85.3067 2.30054 84.2315 2.03104C83.1551 1.76154 82.0732 1.5186 80.9855 1.30222C79.8979 1.08584 78.8057 0.896274 77.709 0.733529C76.6124 0.570785 75.5117 0.435056 74.4072 0.32634C73.3037 0.217626 72.198 0.136057 71.0901 0.0816351C69.9832 0.0272117 68.8753 0 67.7662 0L67.7662 0C66.6567 0 65.5482 0.0272122 64.4404 0.0816367C63.3326 0.13606 62.2269 0.217629 61.1233 0.326344C60.0196 0.435058 58.9193 0.570788 57.8223 0.733534C56.7252 0.896279 55.6329 1.08584 54.5451 1.30223C53.4574 1.51861 52.3756 1.76155 51.2998 2.03105C50.224 2.30055 49.1555 2.59628 48.0942 2.91825C47.033 3.24022 45.9802 3.58803 44.9359 3.96169C43.8918 4.33535 42.8574 4.73441 41.8328 5.15886C40.8082 5.5833 39.7946 6.03264 38.792 6.50686C37.7894 6.98108 36.7991 7.47961 35.821 8.00246C34.8429 8.52531 33.8783 9.07184 32.9271 9.64206C31.9758 10.2123 31.0391 10.8055 30.117 11.4217C29.1948 12.0379 28.2884 12.6763 27.3976 13.3371C26.5068 13.9978 25.6328 14.6799 24.7756 15.3836C23.9182 16.0872 23.0787 16.8115 22.2569 17.5563C21.4353 18.3012 20.6323 19.0658 19.848 19.85C19.0638 20.6343 18.2994 21.4373 17.5546 22.2592C16.8098 23.081 16.0856 23.9206 15.3821 24.778C14.6785 25.6354 13.9963 26.5095 13.3357 27.4004C12.6751 28.2913 12.0367 29.1978 11.4205 30.1199C10.8044 31.0422 10.2113 31.979 9.64116 32.9303C9.07092 33.8817 8.52446 34.8465 8.00174 35.8247C7.47894 36.8028 6.9804 37.7932 6.50617 38.7958C6.03203 39.7985 5.58275 40.8122 5.15831 41.8369C4.73388 42.8616 4.33485 43.8961 3.96123 44.9405C3.58762 45.9848 3.23987 47.0376 2.91798 48.099C2.59598 49.1603 2.3003 50.229 2.03093 51.3049C1.76145 52.3808 1.51852 53.4627 1.30211 54.5505C1.08571 55.6383 0.896139 56.7308 0.733391 57.828C0.570759 58.925 0.435057 60.0255 0.326291 61.1294C0.217642 62.2332 0.136097 63.339 0.0816616 64.4467C0.0272206 65.5546 0 66.6631 0 67.7723L0 67.7723Z" id="path_1" fill="none" fill-rule="evenodd" stroke="none" />
      </g>
    </g>
  </g>
</svg>