<?xml version="1.0" encoding="utf-8"?>
<svg width="1000px" height="1000px" viewBox="0 0 1000 1000" version="1.1" xmlns:xlink="http://www.w3.org/1999/xlink" xmlns="http://www.w3.org/2000/svg">
  <g id="Perplexity">
    <path d="M0 0L1000 0L1000 1000L0 1000L0 0Z" id="矩形" fill="#000000" fill-rule="evenodd" stroke="none" />
    <path d="M302.016 184L481.98 349.81L481.98 349.772L481.98 184.383L517.012 184.383L517.012 350.552L697.782 184L697.782 373.048L772 373.048L772 645.732L698.01 645.732L698.01 814.07L517.012 655.05L517.012 815.896L481.98 815.896L481.98 657.672L302.22 816L302.22 645.732L228 645.732L228 373.048L302.016 373.048L302.016 184L302.016 184L302.016 184ZM455.57 407.652L263.032 407.652L263.032 611.128L302.176 611.128L302.176 546.944L455.57 407.652L455.57 407.652L455.57 407.652ZM337.25 562.298L337.25 738.784L481.98 611.31L481.98 430.842L337.25 562.298L337.25 562.298L337.25 562.298ZM518.02 609.624L518.02 430.672L662.792 562.136L662.792 645.732L662.978 645.732L662.978 736.982L518.02 609.624L518.02 609.624L518.02 609.624ZM698.01 611.128L736.968 611.128L736.968 407.652L545.864 407.652L698.01 545.502L698.01 611.128L698.01 611.128L698.01 611.128ZM662.75 373.048L662.75 263.597L543.954 373.048L662.75 373.048L662.75 373.048L662.75 373.048ZM455.842 373.048L337.048 373.048L337.048 263.597L455.842 373.048L455.842 373.048L455.842 373.048Z" id="形状" fill="#FFFFFF" fill-rule="evenodd" stroke="none" />
  </g>
</svg>