<?xml version="1.0" encoding="utf-8"?>
<svg width="1000px" height="1000px" viewBox="0 0 1000 1000" version="1.1" xmlns:xlink="http://www.w3.org/1999/xlink" xmlns="http://www.w3.org/2000/svg">
  <defs>
    <linearGradient gradientUnits="objectBoundingBox" x1="1.2645326" y1="-0.08150092" x2="0.010891259" y2="1.182011" id="gradient_1">
      <stop offset="0%" stop-color="#46A6F7" />
      <stop offset="100%" stop-color="#8364FF" />
    </linearGradient>
    <linearGradient gradientUnits="objectBoundingBox" x1="0.0029561818" y1="1.1908379" x2="1.0929445" y2="0.08880752" id="gradient_2">
      <stop offset="0%" stop-color="#FF44D3" />
      <stop offset="100%" stop-color="#CF4BFF" />
    </linearGradient>
  </defs>
  <g id="编组">
    <path d="M0 0L1000 0L1000 1000L0 1000L0 0Z" id="矩形" fill="#000000" fill-rule="evenodd" stroke="none" />
    <path d="M362.664 783.936L420.825 711.234L707.926 711.234C713.362 711.198 718.737 710.085 723.741 707.961C728.745 705.837 733.279 702.743 737.079 698.858C740.884 694.973 743.878 690.373 745.894 685.324C747.91 680.276 748.906 674.878 748.825 669.443C748.813 653.809 754.999 638.807 766.021 627.721C777.043 616.636 792.01 610.37 807.643 610.296L807.88 610.296C813.382 610.415 818.856 609.43 823.976 607.4C829.09 605.37 833.753 602.335 837.674 598.475C841.601 594.614 844.717 590.007 846.831 584.924C848.945 579.841 850.023 574.386 850 568.88L850 464.002C850 453.996 846.704 444.27 840.617 436.328L828.986 421.178L828.986 541.535C829.004 547.035 827.926 552.483 825.812 557.56C823.692 562.637 820.588 567.24 816.667 571.098C812.745 574.956 808.094 577.992 802.986 580.028C797.877 582.064 792.41 583.057 786.913 582.951L786.629 582.951C771.008 583.025 756.047 589.285 745.025 600.36C734.003 611.435 727.813 626.425 727.813 642.05C727.888 647.483 726.889 652.876 724.874 657.922C722.86 662.967 719.869 667.565 716.073 671.452C712.278 675.339 707.752 678.439 702.756 680.573C697.76 682.707 692.392 683.834 686.96 683.889L399.812 683.889L336.585 763.063C334.111 766.546 333.062 770.842 333.653 775.073C334.243 779.303 336.428 783.148 339.759 785.821C343.091 788.493 347.319 789.792 351.577 789.45C355.834 789.108 359.801 787.152 362.664 783.983L362.664 783.936L362.664 783.936Z" id="形状" fill="url(#gradient_1)" stroke="none" />
    <path d="M295.966 706.638L357.832 629.245L644.933 629.245C650.365 629.203 655.735 628.086 660.734 625.959C665.733 623.832 670.261 620.737 674.058 616.852C677.855 612.968 680.847 608.37 682.859 603.325C684.873 598.28 685.867 592.885 685.787 587.454L685.787 587.36C685.787 554.855 712.053 528.448 744.556 528.26L744.886 528.26C750.389 528.38 755.856 527.396 760.971 525.369C766.085 523.341 770.742 520.311 774.669 516.455C778.596 512.6 781.706 507.998 783.826 502.92C785.946 497.843 787.029 492.393 787.006 486.891L787.006 366.441L802.204 386.234C808.297 394.189 811.593 403.934 811.587 413.955L811.587 518.786C811.599 524.282 810.516 529.725 808.396 534.797C806.276 539.868 803.165 544.465 799.25 548.319C795.329 552.172 790.678 555.204 785.575 557.237C780.466 559.269 775.005 560.262 769.514 560.155L769.23 560.155C753.597 560.23 738.631 566.496 727.605 577.581C716.581 588.667 710.399 603.668 710.411 619.302C710.486 624.734 709.487 630.127 707.473 635.173C705.458 640.218 702.467 644.817 698.672 648.704C694.876 652.591 690.351 655.69 685.355 657.824C680.359 659.958 674.99 661.085 669.558 661.14L382.41 661.14L326.547 731.028C323.296 735.032 318.595 737.591 313.467 738.146C308.339 738.701 303.199 737.208 299.166 733.992C295.133 730.775 292.535 726.096 291.935 720.973C291.336 715.85 292.784 710.698 295.966 706.638L295.966 706.638Z" id="形状" fill="url(#gradient_2)" stroke="none" />
    <path d="M753.985 324.039C750.053 320.11 745.367 317.016 740.212 314.945C735.051 312.873 729.526 311.867 723.969 311.985L723.781 311.985C716.033 311.979 708.362 310.444 701.207 307.469C694.053 304.494 687.556 300.137 682.088 294.647C676.62 289.157 672.288 282.643 669.342 275.477C666.396 268.311 664.891 260.634 664.916 252.886L664.916 252.839C664.991 247.406 663.992 242.013 661.977 236.967C659.963 231.922 656.972 227.324 653.176 223.437C649.38 219.55 644.855 216.45 639.859 214.316C634.863 212.182 629.495 211.055 624.062 211L292.074 211C286.634 211.036 281.255 212.15 276.248 214.278C271.241 216.405 266.705 219.503 262.902 223.393C259.099 227.283 256.104 231.888 254.091 236.942C252.078 241.996 251.087 247.399 251.174 252.839C251.174 268.513 244.947 283.545 233.864 294.628C222.781 305.712 207.748 311.938 192.074 311.938C186.566 311.825 181.09 312.817 175.971 314.857C170.853 316.895 166.195 319.94 162.273 323.809C158.35 327.679 155.244 332.296 153.136 337.386C151.028 342.477 149.962 347.939 150.001 353.448L150.001 459.593C149.987 465.093 151.073 470.54 153.194 475.615C155.316 480.689 158.43 485.288 162.354 489.142C166.278 492.997 170.932 496.027 176.044 498.057C181.156 500.087 186.622 501.074 192.121 500.962C207.763 500.962 222.767 507.163 233.845 518.206C244.922 529.249 251.171 544.233 251.221 559.874L251.221 667.66C251.218 670.673 252.152 673.613 253.893 676.073C255.634 678.533 258.096 680.391 260.94 681.39C263.783 682.389 266.866 682.48 269.763 681.651C272.66 680.821 275.228 679.112 277.112 676.76L336.962 601.947L624.062 601.947C629.499 601.904 634.873 600.786 639.874 598.656C644.876 596.526 649.407 593.427 653.204 589.538C657.002 585.648 659.993 581.045 662.002 575.994C664.013 570.943 665.003 565.544 664.916 560.108C664.916 527.416 691.276 501.009 723.922 501.009L724.016 501.009C729.52 501.128 734.993 500.144 740.114 498.113C745.228 496.083 749.89 493.048 753.812 489.188C757.739 485.327 760.855 480.72 762.969 475.637C765.083 470.554 766.16 465.099 766.137 459.593L766.137 353.401C766.137 342.754 762.1 332.154 753.985 324.086L753.985 324.039L753.985 324.039Z" id="形状" fill="#FFFFFF" stroke="none" />
    <path d="M683.396 460.719C683.236 476.286 676.938 491.163 665.873 502.114C654.806 513.066 639.866 519.209 624.297 519.208L291.746 519.208C276.185 519.197 261.256 513.048 250.201 502.098C239.145 491.148 232.854 476.278 232.693 460.719L232.693 352.229C232.854 336.661 239.151 321.784 250.217 310.833C261.283 299.881 276.224 293.738 291.793 293.739L624.297 293.739C639.866 293.738 654.806 299.881 665.873 310.833C676.938 321.784 683.236 336.661 683.396 352.229L683.396 460.719L683.396 460.719Z" id="形状" fill="#000000" stroke="none" />
    <path d="M549.859 344.255C544.411 344.255 539.015 345.329 533.981 347.416C528.948 349.502 524.375 352.561 520.524 356.416C516.673 360.271 513.62 364.847 511.539 369.884C509.458 374.92 508.39 380.316 508.396 385.765L508.396 427.229C508.396 438.232 512.767 448.784 520.548 456.564C528.327 464.344 538.88 468.716 549.883 468.716C560.886 468.716 571.439 464.344 579.218 456.564C586.999 448.784 591.37 438.232 591.37 427.229L591.37 385.765C591.37 380.316 590.296 374.921 588.209 369.887C586.122 364.853 583.064 360.28 579.208 356.43C575.353 352.579 570.777 349.526 565.741 347.445C560.705 345.364 555.308 344.296 549.859 344.302L549.859 344.255L549.859 344.255Z" id="形状" fill="#FFFFFF" stroke="none" />
    <path d="M366.229 344.255C360.78 344.255 355.385 345.329 350.351 347.416C345.317 349.502 340.744 352.561 336.894 356.416C333.043 360.271 329.99 364.847 327.909 369.884C325.828 374.92 324.76 380.316 324.766 385.765L324.766 427.229C324.766 438.225 329.134 448.772 336.91 456.548C344.686 464.324 355.233 468.692 366.229 468.692C377.226 468.692 387.773 464.324 395.548 456.548C403.324 448.772 407.693 438.225 407.693 427.229L407.693 385.765C407.693 374.769 403.324 364.222 395.548 356.446C387.773 348.67 377.226 344.302 366.229 344.302L366.229 344.255L366.229 344.255Z" id="形状" fill="#FFFFFF" stroke="none" />
  </g>
</svg>