<?xml version="1.0" encoding="utf-8"?>
<svg width="600px" height="600px" viewBox="0 0 600 600" version="1.1" xmlns:xlink="http://www.w3.org/1999/xlink" xmlns="http://www.w3.org/2000/svg">
  <defs>
    <linearGradient gradientUnits="objectBoundingBox" x1="1" y1="0" x2="0" y2="1" id="gradient_1">
      <stop offset="0%" stop-color="#6947CA" />
      <stop offset="100%" stop-color="#DB52EF" />
    </linearGradient>
    <path d="M357.567 232.726L357.567 232.726C342.692 232.726 330.643 244.776 330.643 259.65L330.643 286.574C330.643 301.448 342.692 313.498 357.567 313.498L357.567 313.498C372.441 313.498 384.491 301.448 384.491 286.574L384.491 259.65C384.491 244.776 372.441 232.726 357.567 232.726L357.567 232.726Z" id="path_1" />
    <path d="M239.892 232.726L239.892 232.726C225.018 232.726 212.968 244.776 212.968 259.65L212.968 286.574C212.968 301.448 225.018 313.498 239.892 313.498L239.892 313.498C254.766 313.498 266.816 301.448 266.816 286.574L266.816 259.65C266.816 244.776 254.766 232.726 239.892 232.726L239.892 232.726Z" id="path_2" />
    <clipPath id="clip_1">
      <use xlink:href="#path_1" clip-rule="evenodd" fill-rule="evenodd" />
    </clipPath>
    <clipPath id="clip_2">
      <use xlink:href="#path_2" clip-rule="evenodd" fill-rule="evenodd" />
    </clipPath>
  </defs>
  <g id="Quora-Poe">
    <path d="M0 0L600 0L600 600L0 600L0 0Z" id="矩形" fill="url(#gradient_1)" fill-rule="evenodd" stroke="none" />
    <path d="M500 240.351L500 309.544C500 323.477 489.409 334.938 475.806 336.28C475.688 336.303 475.547 336.303 475.43 336.303C474.7 336.374 473.97 336.421 473.241 336.421L473.029 336.421C464.721 336.562 453.142 338.468 444.881 346.729C437.562 354.048 435.138 366.287 434.526 376.454L434.502 376.407C433.702 390.551 422.005 401.801 407.649 401.801L220.687 401.801L181.784 450.448C176.347 457.249 165.357 453.413 165.357 444.682L165.357 375.842C164.674 365.792 162.226 353.931 155.048 346.753C146.811 338.492 135.208 336.586 126.9 336.444L126.712 336.444C111.956 336.327 100 324.324 100 309.52L100 240.304C100 239.41 100.047 238.515 100.141 237.645C100.165 237.245 100.259 236.844 100.306 236.444C100.377 235.974 100.424 235.503 100.588 235.079C100.683 234.609 100.8 234.161 100.918 233.714C101.012 233.314 101.106 232.914 101.224 232.514C101.341 232.067 101.506 231.643 101.671 231.196C101.812 230.796 101.93 230.419 102.095 230.019L102.659 228.819C102.848 228.419 103.012 228.019 103.224 227.619C103.436 227.219 103.671 226.866 103.883 226.489C104.095 226.113 104.307 225.736 104.566 225.359C104.848 224.936 105.154 224.536 105.46 224.136C105.695 223.853 105.907 223.524 106.143 223.241C107.272 221.876 108.52 220.605 109.908 219.476C110.191 219.24 110.497 219.028 110.803 218.793C111.203 218.487 111.579 218.181 112.003 217.899C112.379 217.663 112.756 217.452 113.133 217.216C113.486 217.004 113.862 216.769 114.239 216.557C114.639 216.345 115.039 216.181 115.439 215.992C115.839 215.804 116.216 215.592 116.616 215.428C116.992 215.263 117.392 215.145 117.792 215.004C118.24 214.863 118.663 214.698 119.11 214.557C119.51 214.439 119.911 214.345 120.311 214.251C120.758 214.133 121.205 214.016 121.676 213.921C122.123 213.827 122.594 213.78 123.064 213.71C123.464 213.639 123.864 213.568 124.265 213.521C125.065 213.451 125.888 213.404 126.712 213.404L126.924 213.404C135.232 213.262 146.811 211.356 155.072 203.095C162.391 195.776 164.815 183.538 165.427 173.371L165.451 173.394C165.474 173.018 165.474 172.641 165.521 172.265C165.545 171.864 165.639 171.488 165.686 171.111C165.757 170.617 165.804 170.146 165.898 169.652C165.968 169.229 166.086 168.781 166.204 168.358C166.322 167.958 166.416 167.534 166.533 167.11C166.675 166.687 166.839 166.287 166.98 165.863C167.122 165.439 167.263 165.016 167.428 164.616C167.592 164.239 167.757 163.863 167.945 163.486C168.157 163.062 168.346 162.639 168.557 162.215C168.746 161.862 168.957 161.533 169.169 161.18C169.428 160.779 169.663 160.356 169.922 159.956C170.158 159.603 170.44 159.25 170.699 158.897C170.958 158.567 171.193 158.191 171.476 157.861C171.97 157.273 172.488 156.708 173.029 156.167C173.1 156.096 173.17 156.002 173.264 155.908C173.358 155.814 173.476 155.719 173.57 155.625C174.088 155.108 174.629 154.59 175.218 154.119C175.571 153.813 175.947 153.554 176.3 153.295C176.63 153.036 176.959 152.778 177.312 152.542C177.736 152.26 178.183 152.024 178.607 151.766C178.913 151.577 179.242 151.389 179.572 151.201C180.019 150.965 180.466 150.777 180.913 150.565C181.266 150.401 181.619 150.212 181.972 150.071C182.419 149.883 182.867 149.742 183.314 149.577C183.714 149.436 184.067 149.294 184.467 149.177C184.914 149.036 185.385 148.941 185.856 148.824C186.232 148.73 186.609 148.612 187.009 148.541C187.574 148.424 188.138 148.353 188.703 148.282C189.009 148.235 189.315 148.165 189.621 148.141C190.539 148.047 191.433 148 192.351 148L407.696 148C421.629 148 433.09 158.591 434.479 172.17C434.502 172.335 434.479 172.5 434.502 172.665C434.526 172.9 434.526 173.159 434.549 173.394L434.573 173.347C435.208 183.538 437.609 195.752 444.928 203.072C453.166 211.333 464.768 213.239 473.076 213.38L473.288 213.38C488.044 213.498 500 225.501 500 240.304L500 240.351ZM407.225 348C415.58 347.906 427.465 346.07 435.843 337.692C442.669 330.867 445.281 319.052 446.152 308.579L446.152 241.222C445.257 230.772 442.669 218.981 435.843 212.156C427.489 203.754 415.58 201.942 407.225 201.848L192.774 201.848C184.42 201.942 172.534 203.778 164.156 212.156C157.331 218.958 154.718 230.796 153.848 241.245L153.848 308.626C154.742 319.076 157.354 330.89 164.156 337.692C172.511 346.094 184.42 347.906 192.774 348L407.225 348Z" id="4-差异" fill="#FFFFFF" fill-rule="evenodd" stroke="none" />
    <path d="M357.567 232.726L357.567 232.726C342.692 232.726 330.643 244.776 330.643 259.65L330.643 286.574C330.643 301.448 342.692 313.498 357.567 313.498L357.567 313.498C372.441 313.498 384.491 301.448 384.491 286.574L384.491 259.65C384.491 244.776 372.441 232.726 357.567 232.726L357.567 232.726Z" id="2" fill="#FFFFFF" fill-rule="evenodd" stroke="none" />
    <path d="M239.892 232.726L239.892 232.726C225.018 232.726 212.968 244.776 212.968 259.65L212.968 286.574C212.968 301.448 225.018 313.498 239.892 313.498L239.892 313.498C254.766 313.498 266.816 301.448 266.816 286.574L266.816 259.65C266.816 244.776 254.766 232.726 239.892 232.726L239.892 232.726Z" id="1" fill="#FFFFFF" fill-rule="evenodd" stroke="none" />
  </g>
</svg>