<?xml version="1.0" encoding="utf-8"?>
<svg width="600" height="600" viewBox="0 0 600 600" fill="none" stroke="none" version="1.1" xmlns:xlink="http://www.w3.org/1999/xlink" xmlns="http://www.w3.org/2000/svg">
  <defs>
    <linearGradient id="gradient_1" gradientUnits="userSpaceOnUse" x1="300" y1="0" x2="300" y2="600">
      <stop offset="0" stop-color="#FFF0B7" />
      <stop offset="1" stop-color="#FDD746" />
    </linearGradient>
  </defs>
  <g id="新浪微博">
    <path id="椭圆" d="M0 300C0 134.315 134.315 0 300 0C465.685 0 600 134.315 600 300C600 465.685 465.685 600 300 600C134.315 600 0 465.685 0 300Z" style="fill:url(#gradient_1);fill-rule:evenodd;mix-blend-mode:normal;" />
    <g id="编组" transform="translate(90 130)">
      <path id="小路" d="M118.658 36.841C91.0779 6.09369 50.3206 -5.49125 12.7133 2.40121C4.03333 4.2212 -1.49664 12.6737 0.358337 21.3186C2.17831 29.9986 10.6133 35.546 19.2932 33.691C46.1031 27.8986 75.0305 36.316 94.4728 57.8934C113.933 79.6983 119.48 109.396 111.045 135.173C108.158 143.573 112.9 152.795 121.3 155.42C129.683 158.308 138.643 153.6 141.548 145.165C153.36 108.626 145.765 66.8008 118.133 36.0535C118.133 36.0535 118.658 36.841 118.658 36.841C118.658 36.841 118.658 36.841 118.658 36.841Z" style="fill:#FEB434;fill-rule:evenodd;mix-blend-mode:normal;" transform="translate(273.078 0)" />
      <path id="小路" d="M62.882 18.0345C49.477 3.05458 29.4921 -2.7379 11.0822 1.19959C3.45227 2.77458 -1.27267 10.142 0.302307 17.5095C1.87729 24.8595 9.24475 29.6019 16.6122 28.0445C25.5547 26.207 35.2846 28.8145 41.8471 36.1819C48.427 43.5494 50.002 53.2793 47.377 61.9593C44.9971 69.0643 48.9346 76.9392 56.302 79.3192C63.3895 81.4017 71.2994 77.4817 73.6619 70.3592C79.4369 52.4918 75.7619 32.2444 62.357 17.247C62.357 17.247 62.882 18.0345 62.882 18.0345C62.882 18.0345 62.882 18.0345 62.882 18.0345Z" style="fill:#FEB434;mix-blend-mode:normal;" transform="translate(286.539 57.219)" />
      <path id="小路" d="M316.031 116.185C309.976 114.348 306.056 113.035 308.943 105.423C315.506 88.3254 316.293 73.853 308.943 63.353C295.276 43.8931 257.931 44.9256 215.074 62.828C215.074 62.828 201.669 68.6205 205.081 58.0855C211.661 36.7881 210.594 19.1657 200.356 8.92828C176.942 -14.4691 115.149 9.71578 62.3172 62.828C22.9074 102.553 0 144.605 0 180.917C0 250.585 89.232 292.829 176.504 292.829C290.883 292.829 367.043 226.312 367.043 173.48C367.043 141.595 339.971 123.535 316.031 116.01C316.031 116.01 316.031 116.185 316.031 116.185C316.031 116.185 316.031 116.185 316.031 116.185Z" style="fill:#E61012;fill-rule:evenodd;mix-blend-mode:normal;" transform="translate(0 48.178)" />
      <path id="小路" d="M134.531 166.514C64.9334 173.357 4.7862 141.91 0.271225 96.1648C-4.26125 50.5075 48.5535 7.84273 118.221 0.947769C187.853 -5.9472 247.947 25.5176 252.462 71.2624C256.995 116.762 204.18 159.619 134.566 166.444C134.566 166.444 134.531 166.514 134.531 166.514C134.531 166.514 134.531 166.514 134.531 166.514Z" style="fill:#FFFFFF;fill-rule:evenodd;mix-blend-mode:normal;" transform="translate(42.184 149.643)" />
      <path id="小路" d="M90.7366 2.28877C57.6093 -6.33868 20.1594 10.1637 5.73952 39.3536C-8.8904 69.1734 5.28452 102.196 38.7444 113.028C73.4467 124.228 114.309 107.061 128.554 74.8959C142.554 43.5185 125.036 11.1612 90.7366 2.28876C90.7366 2.28876 90.7366 2.28877 90.7366 2.28877Z" style="fill:#000000;mix-blend-mode:normal;" transform="translate(92.942 183.494)" />
      <path id="小路" d="M16.3274 10.7124C13.8599 14.8599 8.46996 16.8899 4.26999 15.1399C0.139999 13.5649 -1.20749 8.82245 1.1725 4.88496C3.58748 0.912491 8.80246 -1.17 12.9324 0.684998C17.1149 2.25999 18.4449 6.98495 16.0824 11.2024C16.0824 11.2024 16.3274 10.7124 16.3274 10.7124C16.3274 10.7124 16.3274 10.7124 16.3274 10.7124Z" style="fill:#FFFFFF;mix-blend-mode:normal;" transform="translate(164.272 222.653)" />
      <path id="小路" d="M42.6742 29.6027C35.9543 40.3826 21.5343 45.0726 10.6669 40.1376C-0.0430679 35.2552 -3.21055 22.7952 3.56191 12.2603C10.1944 1.84781 24.1418 -2.80716 34.9392 1.74281C45.8242 6.34531 49.2892 18.7527 42.6742 29.6027C42.6742 29.6027 42.6742 29.6027 42.6742 29.6027Z" style="fill:#FFFFFF;mix-blend-mode:normal;" transform="translate(115.7 232.235)" />
    </g>
  </g>
</svg>