<?xml version="1.0" encoding="utf-8"?>
<svg width="1000" height="1000" viewBox="0 0 1000 1000" fill="none" xmlns="http://www.w3.org/2000/svg">
  <g>
    <rect width="1000" height="1000" />
    <path d="M70.8873 3.34335C143.944 -18.5994 231.63 66.2574 370.943 293.742C386.6 319.285 400 340.171 400.743 340.199C401.486 340.199 415.6 318.085 432.057 291.057C570.6 63.7717 658.342 -19.7423 732.856 4.71478C780.199 20.2576 800.17 65.9717 799.999 158.429C799.656 338.285 713.199 620.141 642.628 671.455C584.514 713.684 497.686 660.512 416.743 533.084C408.715 520.399 401.372 509.999 400.486 509.97C399.6 509.97 392.458 520.284 384.629 532.941C341.972 601.913 289.658 655.37 244.801 675.827C223.001 685.769 185.087 687.141 169.087 678.541C125.487 655.112 76.4015 553.399 38.3731 407.57C-22.3981 174.571 -10.5696 27.8576 70.8873 3.34335C70.8873 3.34335 70.8873 3.34335 70.8873 3.34335ZM681.514 96.0002C635.257 131.943 575.628 212 488.314 355.428C488.314 355.428 447.086 423.085 447.086 423.085C447.086 423.085 461.2 448.342 461.2 448.342C496.657 511.913 537.628 565.37 570.685 591.198C593.085 608.741 600.485 605.056 620.057 566.513C681.599 445.513 734.056 197.6 716.913 108.486C711.771 81.6574 703.685 78.8003 681.514 96.0002C681.514 96.0002 681.514 96.0002 681.514 96.0002ZM91.7444 88.3716C75.2301 104.686 79.5158 210.428 100.944 315.971C126.801 443.399 181.23 591.627 205.173 599.941C228.458 608.027 292.486 534.799 342.772 442.57C342.772 442.57 353.772 422.37 353.772 422.37C353.772 422.37 318.486 364.456 318.486 364.456C223.915 209.314 162.258 126.429 116.887 93.4859C102.944 83.3716 97.8586 82.3431 91.7444 88.3716C91.7444 88.3716 91.7444 88.3716 91.7444 88.3716Z" fill="#FF9908" transform="translate(100 158)" />
  </g>
</svg>