<svg xmlns="http://www.w3.org/2000/svg" width="1000" height="1000" viewBox="0 0 1000 1000"><g fill-rule="evenodd"><path fill="#2371f3" d="M500 0c98.059.033 196.119-.018 294.178.099 12.562.015 25.124.135 37.685.296q12.086.155 24.168.495c10.741.302 21.969.792 32.719 1.594q6.134.457 12.252 1.104 5.29.56 10.558 1.314 4.648.665 9.265 1.529 4.14.774 8.237 1.75c12.591 3.002 25.055 7.662 35.398 15.621a64 64 0 0 1 11.737 11.737c6.388 8.301 10.67 18.013 13.645 28.005 2.422 8.136 4.051 16.498 5.256 24.894 1.078 7.519 1.854 15.244 2.418 22.809q.544 7.292.898 14.597c.671 13.778 1.016 28.597 1.191 42.286.161 12.56.281 25.12.296 37.681.119 98.063.066 196.126.099 294.189-.033 98.059.02 196.119-.099 294.178-.015 12.562-.135 25.124-.296 37.685q-.154 12.086-.495 24.168c-.303 10.748-.792 21.963-1.594 32.719a396 396 0 0 1-1.104 12.252q-.56 5.29-1.314 10.558a220 220 0 0 1-1.529 9.265 173 173 0 0 1-1.749 8.237c-3.003 12.591-7.663 25.055-15.622 35.398a64 64 0 0 1-11.737 11.737c-10.343 7.959-22.806 12.62-35.398 15.622a172 172 0 0 1-8.236 1.75 222 222 0 0 1-9.265 1.529q-5.267.754-10.558 1.314-6.117.647-12.251 1.104c-10.748.802-21.98 1.291-32.717 1.594q-12.082.34-24.166.495c-12.56.161-25.12.281-37.681.296-98.063.119-196.126.066-294.189.099-98.059-.033-196.119.02-294.178-.099-12.562-.015-25.124-.135-37.686-.296-13.713-.175-28.493-.519-42.289-1.191-12.499-.608-25.013-1.539-37.407-3.316-8.396-1.204-16.759-2.834-24.895-5.256-9.991-2.974-19.704-7.256-28.005-13.644a64 64 0 0 1-11.737-11.737c-7.96-10.343-12.62-22.806-15.622-35.398a172 172 0 0 1-1.75-8.236 220 220 0 0 1-1.529-9.265q-.754-5.267-1.314-10.558a394 394 0 0 1-1.104-12.251c-.802-10.75-1.291-21.977-1.594-32.717q-.34-12.081-.495-24.167c-.16-12.559-.281-25.12-.296-37.68C-.018 696.126.033 598.063 0 500c.033-98.06-.018-196.119.099-294.179.015-12.562.135-25.124.296-37.685.175-13.705.519-28.499 1.19-42.289q.356-7.305.899-14.597c.564-7.564 1.34-15.292 2.418-22.81 1.204-8.396 2.834-16.759 5.256-24.895 2.974-9.992 7.257-19.704 13.644-28.005A64 64 0 0 1 35.54 23.803c10.343-7.96 22.806-12.62 35.398-15.622q4.097-.976 8.236-1.75a220 220 0 0 1 9.265-1.529q5.266-.754 10.558-1.314 6.117-.647 12.251-1.104c10.751-.802 21.976-1.291 32.718-1.594q12.08-.34 24.165-.495C180.69.235 193.25.114 205.811.1 303.874-.018 401.937.033 500 0"/><path fill="#fff" d="M792.069 270.732C769.843 251.706 669.044 179 500 179c-169.136 0-269.751 72.706-291.977 91.732-.83.736-8.023 7.078-8.023 7.078l.369 34.836c.092 3.493 2.582 85.574 38.733 188.06 48.048 136.496 132.063 244.589 245.681 312.148l15.309 9.007 15.494-9.007c113.618-67.559 197.264-175.652 245.312-312.148 36.059-102.486 38.733-184.567 38.733-188.06L800 277.81c-.092.092-7.101-6.342-7.931-7.078m-292.161 482.56C327.175 642.166 278.85 438.296 264.464 342.886L500 575.986l235.997-233.1c-14.479 95.41-64.555 299.28-236.089 410.406m0-279.149L260.129 305.385c5.81-4.229 95.082-66.731 239.779-70.224 144.974 3.493 234.43 65.996 240.24 70.224z"/></g></svg>