<?xml version="1.0" encoding="utf-8"?>
<svg width="600" height="600" viewBox="0 0 600 600" fill="none" stroke="none" version="1.1" xmlns:xlink="http://www.w3.org/1999/xlink" xmlns="http://www.w3.org/2000/svg">
  <g id="抖音">
    <path id="椭圆" d="M0 300C0 134.315 134.315 0 300 0C465.685 0 600 134.315 600 300C600 465.685 465.685 600 300 600C134.315 600 0 465.685 0 300Z" style="fill:#000000;fill-rule:evenodd;mix-blend-mode:normal;" />
    <g id="编组" transform="translate(141 120)">
      <path id="Vector" d="M124.608 15.0075C124.608 15.0075 124.608 0.974541 124.608 0.974541C119.732 0.389893 114.857 0 109.787 0C49.3361 0 0 49.1152 0 109.729C0 146.76 18.5254 179.698 46.801 199.578C28.4706 179.893 17.3554 153.776 17.3554 124.932C17.5504 65.0962 65.3264 16.3716 124.608 15.0075C124.608 15.0075 124.608 15.0075 124.608 15.0075Z" style="fill:#00FAF0;fill-rule:evenodd;mix-blend-mode:normal;" transform="translate(0 127.462)" />
      <path id="Vector_2" d="M40.5605 302.094C67.4719 302.094 89.5067 280.656 90.4818 253.955C90.4818 253.955 90.4818 15.2021 90.4818 15.2021C90.4818 15.2021 134.164 15.2021 134.164 15.2021C133.189 10.3297 132.798 5.2623 132.798 0C132.798 0 73.1265 0 73.1265 0C73.1265 0 73.1265 238.753 73.1265 238.753C72.1514 265.454 50.1166 286.893 23.2057 286.893C14.8204 286.893 6.82517 284.75 0 281.046C9.16531 293.909 23.9856 302.094 40.5605 302.094C40.5605 302.094 40.5605 302.094 40.5605 302.094Z" style="fill:#00FAF0;fill-rule:evenodd;mix-blend-mode:normal;" transform="translate(86.585 0)" />
      <path id="Vector_3" d="M45.2419 26.7011C45.2419 26.7011 45.2419 13.448 45.2419 13.448C28.6658 13.448 13.0661 8.57549 0 0C11.7007 13.2532 27.4962 22.8031 45.2419 26.7011C45.2419 26.7011 45.2419 26.7011 45.2419 26.7011Z" style="fill:#00FAF0;fill-rule:evenodd;mix-blend-mode:normal;" transform="translate(257.198 69.58)" />
      <path id="Vector_4" d="M36.465 54.3772C23.7905 39.7597 15.99 20.8543 15.99 0C15.99 0 0 0 0 0C4.29053 22.6085 17.7456 42.0984 36.465 54.3772C36.465 54.3772 36.465 54.3772 36.465 54.3772Z" style="fill:#FE2C55;fill-rule:evenodd;mix-blend-mode:normal;" transform="translate(220.939 15.215)" />
      <path id="Vector_5" d="M50.1162 44.4379C22.4256 44.4379 0 66.8514 0 94.5266C0 113.822 10.9203 130.389 26.9107 138.769C21.0606 130.583 17.3553 120.449 17.3553 109.534C17.3553 81.8586 39.781 59.4451 67.4721 59.4451C72.5419 59.4451 77.6117 60.2243 82.2925 61.7829C82.2925 61.7829 82.2925 0.975067 82.2925 0.975067C77.4172 0.390289 72.5419 0 67.4721 0C66.6915 0 65.7164 0 64.9372 0C64.9372 0 64.9372 46.7758 64.9372 46.7758C60.2565 45.2172 55.3814 44.4379 50.1162 44.4379C50.1162 44.4379 50.1162 44.4379 50.1162 44.4379Z" style="fill:#FE2C55;fill-rule:evenodd;mix-blend-mode:normal;" transform="translate(59.669 142.471)" />
      <path id="Vector_6" d="M255.455 0C255.455 0 255.455 46.3857 255.455 46.3857C224.45 46.3857 195.979 36.4458 172.579 19.685C172.579 19.685 172.579 140.718 172.579 140.718C172.579 201.137 123.438 250.446 62.7914 250.446C39.3909 250.446 17.7453 243.041 0 230.568C20.0855 252.006 48.5561 265.649 80.3422 265.649C140.793 265.649 190.129 216.534 190.129 155.919C190.129 155.919 190.129 34.8873 190.129 34.8873C213.53 51.6487 242.196 61.5887 273.006 61.5887C273.006 61.5887 273.006 1.94896 273.006 1.94896C266.961 1.75408 261.111 1.16943 255.455 0C255.455 0 255.455 0 255.455 0Z" style="fill:#FE2C55;fill-rule:evenodd;mix-blend-mode:normal;" transform="translate(46.992 96.281)" />
      <path id="Vector_7" d="M201.829 221.796C201.829 221.796 201.829 100.763 201.829 100.763C225.23 117.525 253.895 127.465 284.707 127.465C284.707 127.465 284.707 81.0784 284.707 81.0784C266.766 77.1803 251.166 67.6303 239.465 54.3771C220.745 42.2933 207.29 22.8032 203.195 0C203.195 0 159.514 0 159.514 0C159.514 0 159.514 238.753 159.514 238.753C158.539 265.454 136.503 286.893 109.593 286.893C92.8221 286.893 78.0017 278.707 69.0315 266.039C53.0411 257.658 42.121 240.896 42.121 221.796C42.121 194.12 64.5465 171.707 92.237 171.707C97.3073 171.707 102.377 172.486 107.058 174.046C107.058 174.046 107.058 127.27 107.058 127.27C47.7761 128.634 0 177.359 0 236.804C0 265.649 11.1152 291.96 29.4457 311.451C47.191 323.924 69.0316 331.331 92.237 331.331C152.493 331.525 201.829 282.216 201.829 221.796C201.829 221.796 201.829 221.796 201.829 221.796Z" style="fill:#FFFFFF;fill-rule:evenodd;mix-blend-mode:normal;" transform="translate(17.731 15.206)" />
    </g>
  </g>
</svg>