<?xml version="1.0" encoding="utf-8"?>
<svg width="600" height="600" viewBox="0 0 600 600" fill="none" stroke="none" version="1.1" xmlns:xlink="http://www.w3.org/1999/xlink" xmlns="http://www.w3.org/2000/svg">
  <g id="微信公众号">
    <path id="椭圆" d="M0 300C0 134.315 134.315 0 300 0C465.685 0 600 134.315 600 300C600 465.685 465.685 600 300 600C134.315 600 0 465.685 0 300Z" style="fill:#07C160;fill-rule:evenodd;mix-blend-mode:normal;" />
    <path id="形状" d="M152.092 0C68.0925 0 0 57.54 0 128.485C0 167.195 20.475 202.037 52.535 225.61C56.1861 228.259 57.6954 232.971 56.2625 237.247C56.2625 237.247 49.4375 263.147 49.4375 263.147C49.105 264.372 48.5975 265.615 48.5975 266.875C48.5975 269.727 50.8725 272.037 53.6725 272.037C54.7147 271.996 55.7256 271.669 56.595 271.092C56.595 271.092 89.8975 251.597 89.8975 251.597C93.6276 249.217 98.213 248.591 102.445 249.882C118.578 254.567 135.293 256.941 152.093 256.935C156.923 256.935 161.595 256.462 166.285 256.06C151.288 210.945 169.033 169.05 200.095 143.255C229.898 118.492 268.03 108.605 302.523 111.09C292.443 48.3875 229.093 -1.52588e-05 152.093 -1.52588e-05C152.093 -1.52588e-05 152.092 0 152.092 0ZM101.238 66.5525C112.473 66.5525 121.572 75.81 121.572 87.2025C121.61 92.6328 119.488 97.8556 115.675 101.722C111.861 105.588 106.668 107.781 101.238 107.818C95.8041 107.781 90.6082 105.585 86.7941 101.715C82.98 97.8456 80.8606 92.6184 80.9025 87.185C80.9025 75.7925 90.0025 66.535 101.238 66.535C101.238 66.535 101.238 66.5525 101.238 66.5525ZM202.965 66.5525C214.2 66.5525 223.3 75.81 223.3 87.2025C223.337 92.6328 221.216 97.8555 217.402 101.722C213.589 105.588 208.395 107.78 202.965 107.817C197.535 107.78 192.341 105.588 188.528 101.722C184.714 97.8555 182.593 92.6328 182.63 87.2025C182.63 75.81 191.73 66.5525 202.965 66.5525C202.965 66.5525 202.965 66.5525 202.965 66.5525ZM296.415 116.725C264.967 115.815 230.86 125.685 204.015 147.98C173.915 172.97 156.992 213.08 172.865 256.83C189.35 299.758 237.02 330.837 293.335 330.837C307.79 330.837 321.72 328.737 334.652 324.957C338.183 323.885 342.006 324.409 345.117 326.392C345.117 326.392 372.837 342.597 372.837 342.597C373.563 343.092 374.411 343.377 375.287 343.42C377.632 343.42 379.487 341.477 379.487 339.098C379.487 338.048 379.085 336.997 378.822 336C378.822 336 373.1 314.423 373.1 314.423C372.843 313.535 372.707 312.617 372.697 311.693C372.685 308.941 373.993 306.35 376.215 304.728C402.92 285.11 420 256.06 420 223.86C420 167.685 368.708 121.712 303.52 117.32C303.52 117.32 303.52 117.285 303.52 117.285C301.158 117.11 298.795 116.812 296.398 116.76C296.398 116.76 296.415 116.725 296.415 116.725ZM252.14 174.02C261.503 174.02 269.098 181.72 269.098 191.205C269.13 195.735 267.362 200.092 264.182 203.318C261.001 206.545 256.67 208.375 252.14 208.408C247.61 208.375 243.278 206.545 240.098 203.318C236.918 200.092 235.15 195.735 235.182 191.205C235.182 181.72 242.777 174.02 252.157 174.02C252.157 174.02 252.14 174.02 252.14 174.02ZM336.91 174.02C346.272 174.02 353.867 181.72 353.867 191.205C353.9 195.735 352.132 200.092 348.952 203.318C345.771 206.545 341.44 208.375 336.91 208.408C332.38 208.375 328.048 206.545 324.868 203.318C321.688 200.092 319.92 195.735 319.952 191.205C319.952 181.72 327.547 174.02 336.91 174.02C336.91 174.02 336.91 174.02 336.91 174.02Z" style="fill:#FFFFFF;mix-blend-mode:normal;" transform="translate(90 129)" />
  </g>
</svg>