<?xml version="1.0" encoding="utf-8"?>
<svg width="1000" height="1000" viewBox="0 0 1000 1000" fill="none" xmlns="http://www.w3.org/2000/svg">
  <g>
    <rect width="1000" height="1000" />
    <path d="M75.3804 514.855C75.3804 514.855 354.549 309.569 354.549 309.569C368.236 299.505 387.798 303.431 394.32 319.064C428.642 401.505 413.307 500.58 345.019 568.605C276.732 636.626 181.717 651.545 94.8717 617.569C94.8717 617.569 0 661.325 0 661.325C136.074 753.974 301.31 731.062 404.566 628.134C486.468 546.547 511.835 435.338 488.116 335.053C488.116 335.053 488.33 335.266 488.33 335.266C453.935 187.94 496.787 129.053 584.565 8.63683C586.641 5.78169 588.719 2.92653 590.797 0C590.797 0 475.288 115.063 475.288 115.063L475.288 114.706L75.3099 514.928L75.3804 514.855Z" fill="#000000" transform="matrix(1 0 0 1 330 101)" />
    <path d="M261.952 469.899C166.024 377.165 182.563 233.649 264.414 150.889C324.939 89.6365 424.104 64.6371 510.669 101.388C510.669 101.388 603.641 57.942 603.641 57.942C586.892 45.6916 565.424 32.5153 540.792 23.2561C429.453 -23.1103 296.155 -0.0339966 205.648 91.4883C118.589 179.592 91.2112 315.059 138.225 430.655C173.344 517.049 115.773 578.158 57.7812 639.839C37.2304 661.703 16.6094 683.57 0 706.717C0 706.717 261.88 469.969 261.88 469.969C261.88 469.969 261.952 469.899 261.952 469.899Z" fill="#000000" transform="matrix(1 0 0 1 81 194)" />
  </g>
</svg>