<?xml version="1.0" encoding="utf-8"?>
<svg width="600" height="600" viewBox="0 0 600 600" fill="none" stroke="none" version="1.1" xmlns:xlink="http://www.w3.org/1999/xlink" xmlns="http://www.w3.org/2000/svg">
  <g id="小红书">
    <path id="椭圆" d="M0 300C0 134.315 134.315 0 300 0C465.685 0 600 134.315 600 300C600 465.685 465.685 600 300 600C134.315 600 0 465.685 0 300Z" style="fill:#FF2442;fill-rule:evenodd;mix-blend-mode:normal;" />
    <path id="形状" d="M420.093 40.5941C420.131 40.8941 420.281 40.9691 421.406 40.9504C421.406 40.9504 435 40.9504 435 40.9504C439.548 40.9644 443.854 38.9066 446.701 35.3595C449.547 31.8124 450.624 27.1622 449.625 22.7252C447.974 15.1268 440.753 10.0789 433.05 11.1376C425.586 12.1126 420.021 18.4986 420.075 26.0252C420.075 27.919 420.037 38.5128 420.093 40.5941C420.093 40.5941 420.093 40.5941 420.093 40.5941ZM204.298 130.745C200.491 130.764 178.929 130.82 172.704 130.801C167.823 130.758 162.978 129.961 158.341 128.439C158.114 128.372 157.873 128.484 157.779 128.701C157.779 128.701 144.372 157.745 144.372 157.745C144.271 157.964 144.352 158.223 144.56 158.345C146.641 159.47 150.86 160.67 153.841 160.67C166.216 160.858 178.591 160.708 190.985 160.67C191.173 160.67 191.36 160.558 191.416 160.389C191.416 160.389 204.766 131.42 204.766 131.42C204.84 131.27 204.829 131.092 204.736 130.953C204.643 130.814 204.483 130.734 204.316 130.745C204.316 130.745 204.298 130.745 204.298 130.745ZM8.9396 41.1754C7.60834 41.1754 7.51458 41.2129 7.51458 41.3629C7.42794 41.8596 7.36536 42.3602 7.32708 42.8629C6.82082 50.3067 6.61458 52.1442 2.93954 100.238C2.71454 104.738 2.30203 107.532 0.408272 111.62C-0.0792389 112.689 -0.210487 112.407 0.464516 113.72C1.32703 115.445 13.2334 142.276 15.2209 146.345C15.3709 146.626 15.4272 146.72 15.5397 146.72C15.6897 146.72 16.1584 146.233 16.4209 145.895C19.1772 142.389 21.446 138.564 23.3772 134.533C29.1148 122.626 31.6273 109.689 32.4898 102.545C32.7523 100.482 32.8836 98.4197 33.0523 96.3572C33.0523 96.3572 36.8773 47.3067 36.8773 47.3067C36.8773 47.3067 37.2899 41.8129 37.2899 41.8129C37.3461 41.2691 37.2899 41.1942 36.7273 41.1754C36.7273 41.1754 8.9396 41.1754 8.9396 41.1754ZM143.997 111.62C142.327 108.058 141.463 104.172 141.466 100.238C141.391 98.6634 140.885 92.9258 137.06 42.8629C137.045 42.3457 136.982 41.831 136.872 41.3254C136.797 41.1192 135.897 41.1754 135.447 41.1754C135.447 41.1754 107.697 41.1754 107.697 41.1754C107.134 41.1942 107.059 41.2692 107.134 41.8129C107.134 41.8129 107.528 47.3068 107.528 47.3068C108.953 65.7194 110.397 84.1321 111.897 102.545C112.834 110.045 115.384 122.889 121.028 134.533C122.959 138.564 125.209 142.389 127.966 145.895C128.247 146.233 128.659 146.851 128.866 146.814C129.241 146.758 142.778 116.026 143.941 113.72C144.616 112.407 144.503 112.689 143.997 111.62C143.997 111.62 143.997 111.62 143.997 111.62ZM216.391 94.5009C216.391 94.5009 200.041 94.5009 200.041 94.5009C199.234 94.5088 198.479 94.1044 198.039 93.4283C197.598 92.7523 197.533 91.8983 197.866 91.1633C197.866 91.1633 219.954 41.9441 219.954 41.9441C220.017 41.799 220.003 41.6316 219.916 41.4992C219.829 41.3668 219.681 41.2873 219.523 41.2879C219.523 41.2879 194.81 41.2316 194.81 41.2316C193.862 41.2356 192.977 40.7549 192.464 39.9572C191.951 39.1595 191.882 38.1552 192.279 37.2941C192.279 37.2941 208.704 0.65625 208.704 0.65625C208.767 0.511063 208.753 0.343704 208.666 0.211319C208.579 0.0789337 208.431 -0.000549316 208.273 0C208.273 0 179.022 0 179.022 0C178.835 0 178.647 0.112503 178.572 0.28125C178.572 0.28125 161.21 39.0566 161.21 39.0566C159.616 42.2254 155.322 50.9442 153.729 56.6443C153.388 57.8055 153.261 59.0189 153.353 60.2256C153.486 63.1697 155.112 65.8425 157.666 67.3131C160.315 68.7524 163.277 69.5186 166.291 69.5444C166.291 69.5444 177.354 69.5444 177.354 69.5444C178.122 69.5444 164.454 97.3322 161.716 106.52C161.396 107.564 161.25 108.653 161.285 109.745C161.306 112.819 162.945 115.654 165.597 117.207C168.41 118.932 172.01 119.457 174.504 119.457C174.504 119.457 205.629 119.439 205.629 119.439C205.816 119.439 206.004 119.326 206.06 119.157C206.06 119.157 216.842 95.1571 216.842 95.1571C216.906 95.0088 216.89 94.8376 216.799 94.7041C216.707 94.5706 216.553 94.4937 216.392 94.5009C216.392 94.5009 216.391 94.5009 216.391 94.5009ZM86.4528 1.93127C86.4528 1.93127 58.1213 1.93127 58.1213 1.93127C57.9525 1.92061 57.787 1.9817 57.6656 2.09953C57.5442 2.21735 57.4782 2.38095 57.4838 2.55003C57.4838 22.2002 57.2963 54.9568 57.2963 130.595C57.2963 135.995 52.2525 135.508 52.0462 135.508C52.0462 135.508 38.1711 135.508 38.1711 135.508C37.4211 135.526 37.3461 135.583 37.4211 136.389C37.4399 137.083 46.1399 156.339 47.8275 160.07C48.015 160.445 48.39 160.689 48.7837 160.689C51.7275 160.745 63.1651 160.858 66.3714 160.426C69.2402 160.051 71.9964 159.301 74.584 157.951C80.209 155.026 83.7715 150.095 85.7403 143.608C86.7153 140.383 87.1466 136.989 87.1466 133.614C87.1841 89.9258 87.1466 46.2379 87.0153 2.53128C87.0155 2.2002 86.747 1.93143 86.4156 1.93127C86.4156 1.93127 86.4528 1.93127 86.4528 1.93127ZM307.405 131.232C307.405 130.97 307.217 130.839 306.955 130.82C306.955 130.82 279.486 130.82 279.486 130.82C278.586 130.801 278.567 130.782 278.548 129.901C278.548 129.901 278.548 42.5254 278.548 42.5254C278.548 41.1754 278.455 41.2129 279.861 41.2129C279.861 41.2129 296.042 41.2129 296.042 41.2129C297.542 41.2129 297.448 41.2879 297.448 39.8254C297.448 39.8254 297.448 12.7314 297.448 12.7314C297.448 11.1939 297.561 11.3064 295.948 11.3064C295.948 11.3064 230.323 11.3064 230.323 11.3064C229.123 11.3064 228.917 11.1939 228.917 12.6751C228.917 12.6751 228.917 39.7691 228.917 39.7691C228.917 41.3254 228.804 41.2129 230.417 41.2129C230.417 41.2129 246.429 41.2129 246.429 41.2129C247.836 41.2129 247.742 41.1379 247.742 42.5254C247.742 42.5254 247.742 129.226 247.742 129.226C247.742 131.007 247.892 130.801 246.148 130.801C239.21 130.801 225.335 130.764 221.698 130.801C220.798 130.82 220.573 131.364 220.573 131.364C220.573 131.364 207.504 159.845 207.504 159.845C207.504 159.845 207.241 160.314 207.354 160.52C207.466 160.708 207.598 160.67 208.441 160.67C241.217 160.726 273.973 160.708 306.749 160.708C307.311 160.689 307.386 160.595 307.405 160.089C307.405 160.089 307.405 131.232 307.405 131.232C307.405 131.232 307.405 131.232 307.405 131.232ZM385.724 66.9194C385.724 67.1631 385.593 67.3506 385.349 67.3694C378.862 67.4819 372.374 67.4444 365.905 67.4444C365.643 67.4069 365.493 67.2568 365.493 66.9944C365.399 58.8568 365.362 50.7004 365.305 42.5629C365.305 41.2129 365.193 41.2316 366.618 41.2504C366.618 41.2504 380.362 41.1941 380.362 41.1941C381.131 41.1941 381.88 41.2316 382.612 41.4754C384.356 41.9441 385.612 43.4817 385.706 45.3004C385.818 53.3817 385.743 66.9194 385.724 66.9194C385.724 66.9194 385.724 66.9194 385.724 66.9194ZM435.787 71.4944C430.674 68.8219 425.001 67.3956 419.231 67.3318C419.231 67.3318 415.856 67.3318 415.856 67.3318C415.106 67.3131 415.106 67.2756 415.068 66.5818C415.068 66.5818 415.068 46.8004 415.068 46.8004C415.068 44.3254 414.937 41.8691 414.6 39.4129C414.153 35.974 413.186 32.6231 411.731 29.4753C409.072 23.7671 404.612 19.09 399.037 16.1626C393.268 13.0626 386.835 11.403 380.287 11.3251C377.418 11.2688 369.655 11.3251 366.787 11.3251C365.474 11.3251 365.512 11.4001 365.512 10.1063C365.512 10.1063 365.512 0.862518 365.512 0.862518C365.512 0.281265 365.324 0.0937653 364.649 0.131271C364.649 0.131271 336.186 0.131271 336.186 0.131271C336.186 0.131271 335.886 0.131271 335.755 0.262512C335.643 0.375015 335.605 0.487518 335.605 0.693771C335.605 0.693771 335.605 10.9314 335.605 10.9314C335.455 11.6064 334.536 11.2126 334.068 11.3439C334.068 11.3439 316.255 11.3439 316.255 11.3439C315.842 11.3814 315.73 11.4939 315.692 11.9439C315.692 11.9439 315.692 39.7129 315.692 39.7129C315.692 41.4004 315.617 41.2504 317.23 41.2504C317.23 41.2504 334.349 41.2504 334.349 41.2504C335.886 41.2504 335.699 43.6504 335.699 43.6504C335.699 43.6504 335.699 65.1756 335.699 65.1756C335.699 65.1756 335.755 67.3694 334.574 67.3694C334.574 67.3694 306.786 67.3694 306.786 67.3694C305.511 67.3694 305.661 68.9069 305.661 68.9069C305.661 68.9069 305.661 96.0009 305.661 96.0009C305.661 96.0009 305.474 97.2759 306.861 97.2759C306.861 97.2759 334.18 97.2759 334.18 97.2759C335.718 97.2759 335.605 97.1634 335.605 98.7571C335.605 98.7571 335.605 159.227 335.605 159.227C335.605 160.876 335.474 160.745 337.143 160.745C337.143 160.745 363.955 160.745 363.955 160.745C365.643 160.745 365.493 160.876 365.493 159.245C365.493 159.245 365.493 97.9321 365.493 97.9321C365.493 97.3884 365.605 97.2759 366.112 97.2759C366.112 97.2759 409.668 97.2196 409.668 97.2196C411.506 97.2196 413.25 97.5946 414.918 98.3634C417.958 99.7053 419.956 102.674 420.056 105.995C420.206 113.401 420.112 120.807 420.112 128.214C420.112 133.07 418.106 135.095 413.925 135.095C413.925 135.095 391.087 135.095 391.087 135.095C390.656 135.132 390.543 135.245 390.562 135.714C394.012 143.908 397.574 152.045 401.25 160.145C401.386 160.438 401.677 160.627 402 160.633C405.187 160.726 408.375 160.67 411.562 160.689C414.375 160.651 421.256 160.764 424.05 160.501C426.641 160.295 429.205 159.824 431.7 159.095C442.762 155.72 449.981 146.008 450 134.476C450 134.476 450 97.3321 450 97.3321C450 94.932 449.812 92.5695 449.362 90.207C449.362 91.6695 448.819 78.1882 435.787 71.4943C435.787 71.4943 435.787 71.4944 435.787 71.4944Z" style="fill:#FFFFFF;mix-blend-mode:normal;" transform="translate(75 220)" />
  </g>
</svg>