<svg xmlns="http://www.w3.org/2000/svg" width="1000" height="1000" viewBox="0 0 1000 1000"><g fill-rule="evenodd"><path d="M0 0h1000v1000H0z"/><path fill="#fff" d="M302.016 184 481.98 349.81V184.383h35.032v166.169L697.782 184v189.048H772v272.684h-73.99V814.07L517.012 655.05v160.846H481.98V657.672L302.22 816V645.732H228V373.048h74.016zM455.57 407.652H263.032v203.476h39.144v-64.184zM337.25 562.298v176.486L481.98 611.31V430.842zm180.77 47.326V430.672l144.772 131.464v83.596h.186v91.25zm179.99 1.504h38.958V407.652H545.864l152.146 137.85zm-35.26-238.08V263.597L543.954 373.048zm-206.908 0H337.048V263.597z"/></g></svg>